<?xml version="1.0" encoding="utf-8"?>
<!-- Generator: Adobe Illustrator 27.5.0, SVG Export Plug-In . SVG Version: 6.00 Build 0)  -->
<svg version="1.1" xmlns="http://www.w3.org/2000/svg" xmlns:xlink="http://www.w3.org/1999/xlink" x="0px" y="0px"
	 viewBox="0 0 1122 1122" style="enable-background:new 0 0 1122 1122;" xml:space="preserve">
<g id="background">
	<rect y="0" style="fill:#FFFFFF;" width="1122" height="1122"/>
</g>
<g id="object">
	<defs>
		<filter id="Adobe_OpacityMaskFilter" filterUnits="userSpaceOnUse" x="674.716" y="976.884" width="314.629" height="26.372">
			<feFlood  style="flood-color:white;flood-opacity:1" result="back"/>
			<feBlend  in="SourceGraphic" in2="back" mode="normal"/>
		</filter>
	</defs>
	<mask maskUnits="userSpaceOnUse" x="674.716" y="976.884" width="314.629" height="26.372" id="SVGID_1_">
		<g style="filter:url(#Adobe_OpacityMaskFilter);">
			<defs>
				
					<filter id="Adobe_OpacityMaskFilter_00000068650409906206488170000017167567872366285477_" filterUnits="userSpaceOnUse" x="674.716" y="976.884" width="314.629" height="26.372">
					<feFlood  style="flood-color:white;flood-opacity:1" result="back"/>
					<feBlend  in="SourceGraphic" in2="back" mode="normal"/>
				</filter>
			</defs>
			<mask maskUnits="userSpaceOnUse" x="674.716" y="976.884" width="314.629" height="26.372" id="SVGID_1_">
				<g style="filter:url(#Adobe_OpacityMaskFilter_00000068650409906206488170000017167567872366285477_);">
				</g>
			</mask>
			
				<linearGradient id="SVGID_00000155116069840430046150000017894697677087570603_" gradientUnits="userSpaceOnUse" x1="2493.3186" y1="2042.9656" x2="2722.1328" y2="2042.9656" gradientTransform="matrix(1.3735 0.0703 -0.0412 0.8045 -2665.4734 -836.3219)">
				<stop  offset="0" style="stop-color:#FFFFFF"/>
				<stop  offset="1" style="stop-color:#000000"/>
			</linearGradient>
			<path style="mask:url(#SVGID_1_);fill:url(#SVGID_00000155116069840430046150000017894697677087570603_);" d="M676.492,983.448
				c-5.012,4.794,1.576,8.282,7.452,9.91c17.044,4.724,41.459,4.414,59.874,5.743c64.078,4.622,128.429,4.728,192.382,3.465
				c15.873-0.313,31.904-0.726,46.974-3.265c2.05-0.345,4.22-0.79,5.383-1.825c1.702-1.515,0.46-3.758-1.92-5.07
				s-5.584-1.917-8.667-2.465c-75.479-13.406-155.972-11.718-233.615-12.963C687.383,976.064,677.881,982.119,676.492,983.448z"/>
		</g>
	</mask>
	
		<linearGradient id="SVGID_00000005964235559064339590000005856800018683105726_" gradientUnits="userSpaceOnUse" x1="2493.3186" y1="2042.9656" x2="2722.1328" y2="2042.9656" gradientTransform="matrix(1.3735 0.0703 -0.0412 0.8045 -2665.4734 -836.3219)">
		<stop  offset="0" style="stop-color:#272525"/>
		<stop  offset="1" style="stop-color:#FFFFFF"/>
	</linearGradient>
	<path style="opacity:0.35;fill:url(#SVGID_00000005964235559064339590000005856800018683105726_);" d="M676.492,983.448
		c-5.012,4.794,1.576,8.282,7.452,9.91c17.044,4.724,41.459,4.414,59.874,5.743c64.078,4.622,128.429,4.728,192.382,3.465
		c15.873-0.313,31.904-0.726,46.974-3.265c2.05-0.345,4.22-0.79,5.383-1.825c1.702-1.515,0.46-3.758-1.92-5.07
		s-5.584-1.917-8.667-2.465c-75.479-13.406-155.972-11.718-233.615-12.963C687.383,976.064,677.881,982.119,676.492,983.448z"/>
	<defs>
		
			<filter id="Adobe_OpacityMaskFilter_00000118390203989789431800000010548947705649398159_" filterUnits="userSpaceOnUse" x="355.371" y="978.648" width="228.864" height="24.877">
			<feFlood  style="flood-color:white;flood-opacity:1" result="back"/>
			<feBlend  in="SourceGraphic" in2="back" mode="normal"/>
		</filter>
	</defs>
	
		<mask maskUnits="userSpaceOnUse" x="355.371" y="978.648" width="228.864" height="24.877" id="SVGID_00000105408777068763782870000012034569974678613420_">
		<g style="filter:url(#Adobe_OpacityMaskFilter_00000118390203989789431800000010548947705649398159_);">
			<defs>
				
					<filter id="Adobe_OpacityMaskFilter_00000089574153591636554500000006062755414705876899_" filterUnits="userSpaceOnUse" x="355.371" y="978.648" width="228.864" height="24.877">
					<feFlood  style="flood-color:white;flood-opacity:1" result="back"/>
					<feBlend  in="SourceGraphic" in2="back" mode="normal"/>
				</filter>
			</defs>
			
				<mask maskUnits="userSpaceOnUse" x="355.371" y="978.648" width="228.864" height="24.877" id="SVGID_00000105408777068763782870000012034569974678613420_">
				<g style="filter:url(#Adobe_OpacityMaskFilter_00000089574153591636554500000006062755414705876899_);">
				</g>
			</mask>
			
				<linearGradient id="SVGID_00000122683699501286596050000005212308932298036366_" gradientUnits="userSpaceOnUse" x1="636.5967" y1="2066.7295" x2="865.4031" y2="2066.7295" gradientTransform="matrix(0.9987 0.0511 -0.0412 0.8045 -195.0338 -709.8885)">
				<stop  offset="0" style="stop-color:#FFFFFF"/>
				<stop  offset="1" style="stop-color:#000000"/>
			</linearGradient>
			
				<path style="mask:url(#SVGID_00000105408777068763782870000012034569974678613420_);fill:url(#SVGID_00000122683699501286596050000005212308932298036366_);" d="
				M356.71,986.226c-3.715,4.86,1.032,8.254,5.285,9.799c12.339,4.483,30.113,3.833,43.497,4.904
				c46.572,3.726,93.406,2.935,139.969,0.782c11.557-0.534,23.23-1.17,34.234-3.918c1.497-0.374,3.083-0.848,3.943-1.899
				c1.26-1.538,0.387-3.762-1.327-5.04s-4.038-1.838-6.274-2.342c-54.747-12.344-113.354-9.536-169.846-9.698
				C364.74,978.696,357.74,984.879,356.71,986.226z"/>
		</g>
	</mask>
	
		<linearGradient id="SVGID_00000039816370920331417640000018235632624231585925_" gradientUnits="userSpaceOnUse" x1="636.5967" y1="2066.7295" x2="865.4031" y2="2066.7295" gradientTransform="matrix(0.9987 0.0511 -0.0412 0.8045 -195.0338 -709.8885)">
		<stop  offset="0" style="stop-color:#272525"/>
		<stop  offset="1" style="stop-color:#FFFFFF"/>
	</linearGradient>
	<path style="opacity:0.35;fill:url(#SVGID_00000039816370920331417640000018235632624231585925_);" d="M356.71,986.226
		c-3.715,4.86,1.032,8.254,5.285,9.799c12.339,4.483,30.113,3.833,43.497,4.904c46.572,3.726,93.406,2.935,139.969,0.782
		c11.557-0.534,23.23-1.17,34.234-3.918c1.497-0.374,3.083-0.848,3.943-1.899c1.26-1.538,0.387-3.762-1.327-5.04
		s-4.038-1.838-6.274-2.342c-54.747-12.344-113.354-9.536-169.846-9.698C364.74,978.696,357.74,984.879,356.71,986.226z"/>
	<g>
		<g>
			<path style="fill:#D1AC9D;" d="M464.704,507.406c-1.761-9.263-10.965-33.189-10.981-42.617
				c-0.016-9.094,1.266-13.055-6.643-18.681c-11.777-8.377-18.976,4.719-32.999,4.917c-21.063,0.295-31.559-2.658-50.61,6.33
				c-4.448,2.098-9.15,4.98-10.468,9.718c-0.647,2.331-0.369,4.805-0.085,7.207c1.715,14.508-7.409,35.208-5.694,49.716
				c0.332,2.805,0.696,5.707,2.164,8.12c1.496,2.458,3.985,4.142,6.544,5.458c10.173,5.232,22.089,5.676,33.52,5.258
				c15.343-0.562,30.784-2.518,45.195-7.813c7.362-2.705,14.384-6.253,21.308-9.939c3.64-1.937,11.617,3.604,13.02-0.274
				C470.074,521.77,465.307,510.579,464.704,507.406z"/>
		</g>
		<g>
			<g>
				<path style="fill:#333333;" d="M471.282,528.818c-4.108-10.843,11.302-2.817-59.365-8.435
					c-42.136-3.349-62.352-1.29-62.352-1.29c-41.585,22.22,22.318,413.5,22.318,413.5h16.599
					c-5.928-21.573,13.405-315.926,16.962-317.263c3.557-1.336,12.759,0,12.759,0c22.245,17.423,64.326,314.32,64.326,314.32
					l16.001-0.81C498.314,870.687,471.282,528.818,471.282,528.818z"/>
			</g>
			<g>
				<path style="fill:#D1AC9D;" d="M444.15,230.123c-3.372-21.899-25.198-36.713-48.749-33.086
					c-23.551,3.626-39.909,24.319-36.537,46.219c0.563,3.657,1.682,7.093,3.196,10.302c0.169,0.854,0.324,1.733,0.451,2.656
					c1.093,7.918,2.676,15.818,5.422,23.373c5.343,14.7,15.362,27.597,31.54,33.936c5.389,2.111,11.405,3.425,17.31,2.472
					c7.942-1.281,14.606-6.492,19.349-12.416c15.666-19.569,13.361-44.999,8.413-68.572
					C444.51,233.388,444.403,231.761,444.15,230.123z"/>
			</g>
		</g>
		<g>
			<path style="fill:#D1AC9D;" d="M546.251,308.583c-1.229-1.545-3.369-2.156-5.334-2.658c-3.99-1.02-8.445-2.001-11.851-0.236
				c-3.764,1.951-4.762,6.527-4.642,10.654c0.096,3.273,0.677,6.561,1.489,9.807c1.084,4.337,2.575,8.628,3.333,12.995
				c1.049,11.773,2.427,28.098,3.475,39.859c0.81,9.085,1.079,19.624-5.736,25.685c-4.247,3.776-10.449,4.775-16.034,3.725
				c-5.585-1.051-10.661-3.917-15.354-7.122c-3.288-2.246-6.474-4.705-9.04-7.749c-3.32-3.939-14.1-13.631-16.837-17.995
				c-8.266-13.18-13.055-17.624-21.098-30.94c-2.935-4.86-5.23-10.329-9.609-13.943c-11.59-9.565-19.358,4.806-21.22,14.778
				c-2.112,11.314,0.654,23.408,6.266,33.332c8.34,14.747,21.977,25.622,35.279,36.114c5.599,4.416,11.197,8.832,16.796,13.248
				c5.571,4.394,11.235,8.843,17.794,11.548c7.519,3.101,15.859,3.743,23.973,3.185c5.593-0.384,11.403-1.425,15.849-4.84
				c3.12-2.397,5.328-5.79,7.103-9.3c3.08-6.091,5.039-12.746,5.749-19.534c0.69-6.603,0.208-13.266-0.274-19.887
				c-1.085-14.882-1.896-37.524-2.982-52.407c1.23-7.427,2.46-14.854,3.69-22.281C547.368,312.604,547.634,310.323,546.251,308.583z
				"/>
		</g>
		<g>
			<path style="fill:#282828;" d="M313.748,187.494c1.199-0.308,2.358-0.678,3.511-1.05c-0.407,0.952-0.742,1.978-0.927,3.156
				c-0.316,2.007,1.571,3.076,3.079,2.763c0.107,0.463,0.364,0.892,0.788,1.246c0.044,0.358,0.228,0.682,0.638,0.827
				c0.886,0.311,1.757,0.514,2.629,0.717c0.615,0.211,1.152,0.376,1.516,0.503c-0.84,0.483-1.709,0.917-2.598,1.31
				c-1.664,0.381-3.356,0.704-4.679,1.804c-2.233,1.855-0.481,5.219,2.311,4.442c2.564-0.711,4.955-1.68,7.152-2.867
				c0.014,1.326,0.068,2.604,0.152,3.812c0.09,1.294,0.982,1.946,1.973,2.082c0.169,0.632,0.595,1.203,1.385,1.421
				c2.883,0.797,4.431-0.255,5.921-1.76c0.038-0.005,0.074-0.01,0.112-0.016c-1.142,1.26-2.458,2.469-4.152,3.645
				c-2.088,1.45-0.324,4.913,2.065,3.964c0.112-0.044,0.206-0.103,0.316-0.149c0.438,0.689,1.232,1.137,2.197,0.977
				c-0.111,0.075-0.207,0.165-0.294,0.261c-1.581,0.253-3.096,0.268-4.413-0.201c-2.156-0.766-3.746,2.308-1.573,3.273
				c2.145,0.951,4.091,0.583,6.161-0.08c0.351,0.304,0.815,0.497,1.413,0.452c1.659-0.128,2.994-0.566,4.129-1.214
				c0.106,0.178,0.197,0.366,0.313,0.538c-0.727,0.154-1.462,0.324-2.215,0.538c-6.448,1.823-12.19,6.06-18.695,7.891
				c-1.761,0.497-0.761,3.06,0.963,2.641c4.374-1.065,8.418-2.922,12.594-4.54c1.441-0.559,2.772-0.983,4.069-1.34
				c-2.311,2.745-4.841,5.296-7.49,7.291c-1.518,1.143-3.323,1.938-4.245,3.697c-1.067,2.041-0.347,5.665-2.072,7.269
				c-1.723,1.602,1.083,3.954,2.787,2.368c1.653-1.538,1.355-3.965,1.946-6.019c0.979-3.399,3.709-4.62,5.932-7.093
				c2.346-2.609,4.475-5.38,6.406-8.283c0.721-0.138,1.468-0.246,2.207-0.361c-0.008,0.019-0.019,0.038-0.027,0.057
				c-1.804,4.44-2.973,8.715-5.495,12.866c-3.862,6.354-5.623,10.429-3.278,17.725c0.363,1.13,2.095,0.496,1.732-0.632
				c-2.941-9.148,3.03-13.05,6.527-20.033c-0.081,2.974,0.683,5.522,0.797,8.477c0.125,3.205-0.875,6.46-0.887,9.657
				c-0.018,4.324,0.683,8.818,0.874,13.16c0.18,4.086,1.16,6.372,3.62,9.554c1.929,2.491,3.018,3.546,4.258,6.298
				c0.7,1.551,0.971,3.622,1.912,5.104c3.372,5.31,10.502,8.011,15.638,11.229c0.943,0.591,1.805,0.334,2.374-0.277
				c0.107,0.415,0.196,0.832,0.257,1.177c0.473,2.659,4.714,2.263,4.171-0.339c-0.418-2.001-0.824-4.401-2.716-5.535
				c-1.262-0.758-2.387-1.111-3.41-2.202c0.175-0.016,0.352-0.03,0.526-0.046c0.798-0.068,1.129-1.099,0.523-1.62
				c-1.116-0.957-2.152-1.917-3.18-2.877c0.987-0.816,1.405-2.375,0.154-3.475c-0.265-0.233-0.522-0.422-0.784-0.637
				c1.145-0.269,2.007-1.609,1.589-2.821c-0.417-1.208-0.847-2.384-1.275-3.561c-0.015-0.206-0.065-0.419-0.211-0.634
				c-0.01-0.016-0.023-0.031-0.033-0.049c-0.344-0.937-0.68-1.866-1.019-2.792c0.412-0.037,0.82-0.158,1.174-0.409
				c0.201-0.101,0.364-0.266,0.481-0.468c0.612-0.714,0.87-1.737,0.253-2.756c-0.399-0.659-0.862-1.352-1.291-2.025
				c0.061,0.056,0.104,0.124,0.167,0.179c0.227,0.2,0.463,0.322,0.698,0.396c0.274,0.576,0.548,1.143,0.823,1.729
				c0.637,1.359,2.766,0.641,2.228-0.812c-0.273-0.734-0.553-1.451-0.831-2.171c0.187-0.518,0.193-1.107-0.15-1.661
				c-0.57-0.923-1.095-1.832-1.581-2.745c-0.246-0.618-0.487-1.234-0.73-1.847c0.821,0.805,1.545,1.676,1.981,2.747
				c0.158,0.389,0.451,0.508,0.747,0.525c0.564,2.784,5.009,2.399,4.565-0.494c-0.488-3.162-0.306-6.702-1.184-9.795
				c1.749,1.476,4.553-0.469,3.462-2.38c0.249-0.277,0.417-0.625,0.499-0.993c1.576,0.538,3.478-0.778,2.809-2.731
				c-0.017-0.054-0.036-0.109-0.055-0.162c-0.106-0.314-0.273-0.563-0.468-0.768c-1.038-1.501-1.68-3.067-2.148-4.664
				c0.293,0.215,0.577,0.434,0.919,0.624c0.277,0.152,0.705,0.121,0.953-0.077c0.382-0.31,0.764-0.62,1.147-0.928
				c0.653-0.528,0.119-1.815-0.724-1.391c-0.56,0.284-2.118-2.153-3.668-4.856c-0.359-1.841-0.862-3.662-1.702-5.434
				c2.301,1.404,5.349,1.951,6.578,4.477c1.185,2.432,5.184,1.001,3.987-1.454c-0.255-0.524-0.562-0.975-0.878-1.413
				c0.474-0.541,0.677-1.262,0.425-2.022c0.727,0.502,1.505,0.885,2.423,0.889c0.797,0.003,1.001-1.234,0.283-1.528
				c-2.113-0.867-4.457-3.985-6.338-6.195c2.529,1.908,5.015,3.85,7.05,6.449c0.424,0.542,1.388,0.107,1.107-0.578
				c-0.347-0.842-0.762-1.608-1.208-2.34c0.085,0.035,0.161,0.084,0.248,0.117c0.411,0.156,0.799,0.174,1.159,0.124
				c0.143,0.203,0.274,0.413,0.348,0.641c0.326,1.003,2.028,0.933,2.136-0.173c0.043-0.444,0.087-0.888,0.13-1.332
				c0.055-0.562-0.153-1.314-0.767-1.519c-0.047-0.015-0.121-0.062-0.17-0.08c-0.012-0.083,0.023-0.15,0.003-0.235
				c-0.023-0.099-0.066-0.178-0.09-0.273c0.681-0.611,1.024-1.58,0.341-2.51c-0.163-0.223-0.351-0.416-0.518-0.635
				c1.436,1.41,2.565,3.028,3.081,5.019c0.523,2.018,3.738,1.454,3.905-0.357c1.497,0.29,3.246-0.928,2.519-2.762
				c-0.185-0.466-0.41-0.844-0.607-1.283c-0.017-0.463-0.004-0.978-0.048-1.403c0.949,1.631,1.661,3.526,2.028,5.808
				c0.196,1.217,1.99,1.097,1.925-0.156c-0.178-3.457-1.013-7.164-2.853-10.19c1.676,1.728,2.865,3.912,3.186,6.875
				c0.304,2.799,4.734,2.415,4.346-0.353c-0.427-3.046-1.665-5.659-3.429-7.885c2.645,2.492,4.52,5.367,4.613,8.728
				c0.021,0.775,1.27,0.84,1.36,0.073c0.251-2.11-0.028-4.005-0.659-5.737c1.111,1.367,2.139,2.815,2.949,4.45
				c0.538,1.087,2.288,0.517,1.814-0.661c-1.028-2.562-2.582-5.044-4.462-7.32c1.858,1.343,3.497,3.156,5.252,4.77
				c0.22,0.204,0.457,0.273,0.679,0.253c0.378,1.057,0.652,2.224,0.782,3.546c0.116,1.178,1.81,1.007,1.808-0.147
				c-0.002-1.879-0.259-3.482-0.685-4.906c0.492,0.681,0.915,1.377,1.187,2.102c0.532,1.423,2.12,1.676,3.202,1.087
				c-0.02,0.543-0.094,1.105-0.228,1.69c-0.236,1.027,1.296,1.275,1.58,0.301c1.313-4.501,0.258-8.025-2.021-10.922
				c0.83,0.709,1.589,1.429,2.226,2.179c1.041,2.174,1.728,4.625,2.151,7.398c0.158,1.04,1.426,1.066,1.798,0.309
				c0.521,1.739,0.953,3.598,1.385,5.642c0.259,1.221,1.496,2.559,2.911,1.865c1.339-0.656,2.278-1.594,2.904-2.715
				c0.1,0.687,0.199,1.373,0.251,2.101c0.126,1.738,2.299,2.555,3.56,1.474c0.395,0.368,1.052,0.438,1.404-0.204
				c0.341-0.617,0.535-1.232,0.751-1.846c-0.092,0.578-0.219,1.146-0.443,1.684c-0.35,0.838-1.024,1.516-1.283,2.392
				c-0.179,0.6-0.125,1.247-0.278,1.861c-0.453,1.807,1.786,2.567,2.923,1.607c0.297,3.497,0.34,7.029,0.721,10.486
				c0.114,1.042,0.781,1.645,1.56,1.853c-0.152,0.524-0.294,1.035-0.452,1.571c-0.731,2.479,0.246,4.901-1.112,7.257
				c0.007-0.002,0.016-0.003,0.023-0.006c-0.038,0.095-0.11,0.159-0.129,0.267c-0.009,0.045-0.017,0.089-0.024,0.134
				c-0.258,1.45,1.878,2.752,2.798,1.338c0.367-0.564,0.618-1.133,0.827-1.704c0.289,0.281,0.836,0.24,0.992-0.281
				c3.193-10.613,5.011-20.31,0.977-30.604c-1.55-3.953-4.098-7.737-6.657-11.214c-1.806-2.701-3.814-5.521-5.513-7.765
				c-2.125-2.805-3.99-3.533-6.755-5.773c-3.516-2.852-5.486-7.178-9.468-9.468c-2.705-2.47-5.723-4.291-9.618-5.329
				c-4.077-1.085-7.955-0.259-11.841,0.804c2.129-1.006,4.358-1.809,6.782-2.143c5.59-0.773,12.349,1.32,18.247,2.115
				c4.334,0.584,7.398,2.893,11.288,3.656c0.352,0.069,0.795-0.057,1.015-0.358l0.996-1.364c0.721-0.991-0.592-2.113-1.451-1.233
				c0.2-0.205-10.877-3.508-10.412-3.402c-4.586-1.029-9.228-2.697-13.822-3.366c-2.282-0.332-4.439-0.227-6.512,0.156
				c2.469-1.472,4.766-3.125,6.37-5.545c1.294-1.955,2.178-3.909,3.888-5.602c1.313-1.299,3.12-2.27,4.413-3.336
				c2.069-1.707,2.513-2.635,1.597-5.41c-0.229-0.699-1.307-0.441-1.246,0.274c0.179,2.074-6.31,5.241-7.724,6.381
				c-1.715,1.383-2.203,2.245-3.331,4.129c-3.06,5.111-6.599,5.506-11.507,7.738c0.997-1.186,1.969-2.365,2.467-3.942
				c0.623-1.977,0.501-4.09,0.312-6.124c-0.117-1.258-2.053-1.099-1.954,0.159c0.188,2.403,0.167,4.634-1.421,6.635
				c-0.902,1.138-2.14,1.981-3.059,3.111c-0.329,0.403-0.619,0.856-0.896,1.322c-0.366,0.054-0.734,0.107-1.101,0.161
				c-0.507-0.234-1.149-0.03-1.39,0.487l-0.811,1.128c-0.627-0.4-1.68,0.008-1.941,0.68c-0.1-0.006-0.199-0.011-0.301-0.018
				c0.976-1.092,1.647-2.225,1.977-3.384c0.404-0.561,0.775-1.167,1.082-1.862c0.279-0.635-0.516-1.222-1.009-0.793
				c-0.149-0.564-0.389-1.132-0.762-1.703c-0.459-0.702-1.386-0.075-1.209,0.63c0.234,0.944,0.016,1.909-0.5,2.883
				c-0.037-0.232-0.152-0.452-0.398-0.604c-0.817-0.504-1.68-0.878-2.535-1.275c-0.01-0.469-0.078-0.937-0.191-1.405
				c2.768,1.348,4.824-3.054,2.041-4.58c-2.328-1.277-4.421-2.153-6.39-2.703c2.732-1.044,0.991-5.35-2.03-4.646
				c-0.162,0.039-0.327,0.058-0.49,0.095c0.216-1.095-0.938-2.307-1.962-1.406c-1.029,0.907-2.132,1.692-3.269,2.425
				c-0.699,0.112-1.404,0.18-2.104,0.277c0.256-0.349,0.374-0.794,0.063-1.196c-0.246-0.318-0.508-0.628-0.763-0.944
				c-0.273-3.662-1.574-7.496-3.918-11.753c-0.521-0.949-2.02-0.107-1.648,0.857c0.894,2.314,1.377,4.461,1.668,6.532
				c-7.51-7.52-17.356-12.524-28.159-6.662c-6.381,3.463-11.497,9.132-13.854,15.694c-0.159,0.081-0.322,0.147-0.479,0.232
				c-0.271,0.143-0.45,0.33-0.615,0.521c-4.588,0.778-9.316,2.384-9.29,6.119c0.02,2.819,1.761,4.017,4.062,4.38
				c-0.064,0.022-0.134,0.024-0.198,0.046c-2.297,0.77-1.728,3.689,0.038,4.4c-3.25,1.53-6.205,3.599-7.128,5.472
				C309.636,186.177,311.757,188.006,313.748,187.494z M405.378,184.767c2.941-0.766,5.977-0.629,8.833,0.224
				c-1.965-0.048-3.945,0.038-5.751-0.01C407.422,184.953,406.397,184.873,405.378,184.767z M383.48,176.624
				c0.309-0.372,0.619-0.742,0.87-1.128c0.333-0.51,0.536-1.01,0.689-1.507c0.688,0.34,1.368,0.718,2.042,1.154
				c0.039,0.026,0.071-0.002,0.109,0.015C386.054,175.764,384.823,176.26,383.48,176.624z"/>
		</g>
		<g>
			<path style="fill:#333333;" d="M464.425,376.682c-0.603-4.254-1.264-8.667-3.639-12.247c-2.409-3.631-6.28-5.962-9.74-8.611
				c-5.502-4.211-10.147-9.51-13.691-15.458c-1.813-3.041-3.34-6.252-4.546-9.581c-0.983-2.711-1.092-8.614-2.694-10.704
				c-2.813-3.67-14.05-0.006-19.353-0.253c-8.013-0.372-15.96-2.376-23.148-5.946c-5.569-2.766-10.772-6.46-16.793-8.016
				c-0.292,5.336,3.832,9.86,5.071,15.06c1.147,4.814-0.253,9.838-1.79,14.543c-4.219,12.911-9.572,25.482-16.453,37.192
				c-6.24,10.619-13.732,20.531-19,31.664c-9.878,20.876-1.862,52.436-3.143,75.495c9.592,3.611,21.104-0.993,31.307-0.008
				c9.563,0.923,8.191-0.189,17.775-0.856c19.418-1.352,21.372,1.1,40.79-0.252c10.325-0.719,20.733-1.452,30.705-4.226
				c1.092-0.304,2.254-0.684,2.929-1.593c0.825-1.111,0.669-2.642,0.475-4.012C455.311,439.41,468.6,406.145,464.425,376.682z"/>
		</g>
		<g>
			<path style="fill:#682D2C;" d="M387.819,928.47c0.954,0.001,1.996,0.032,2.725,0.647c0.821,0.692,0.967,1.879,1.067,2.948
				c0.716,7.714,1.968,15.378,3.743,22.919c0.615,2.611,1.33,5.287,2.972,7.409c3.496,4.518,9.973,5.196,15.686,5.167
				c5.713-0.029,11.988-0.214,16.433,3.375c4.899,3.956,5.737,11.028,5.68,17.325c-0.017,1.876-0.25,4.064-1.842,5.056
				c-0.887,0.552-1.991,0.581-3.036,0.592c-8.866,0.1-17.731,0.2-26.597,0.299c-5.071,0.057-10.325,0.078-14.96-1.979
				c-5.936-2.634-10.022-8.396-12.122-14.541c-2.1-6.145-2.473-12.725-2.829-19.209c-1.34,11.611-1.056,23.409,0.842,34.942
				c-1.598,0.014-3.197,0.028-4.795,0.042c-2.436-15.412-4.009-30.96-4.716-46.548c-0.192-4.242-2.556-14.819,1.253-17.802
				C371.049,926.196,383.208,928.465,387.819,928.47z"/>
		</g>
		<g>
			<path style="fill:#682D2C;" d="M495.333,918.543c1.319-0.008,2.732,0.012,3.815,0.765c1.162,0.809,1.655,2.257,2.115,3.596
				c5.893,17.184,17.837,32.226,33.24,41.859c1.634,1.022,3.345,2.019,4.536,3.535c1.793,2.283,2.121,5.353,2.381,8.244
				c0.47,5.228,0.63,11.292-3.287,14.786c-2.392,2.134-5.755,2.73-8.943,3.07c-6.047,0.646-12.159,0.687-18.214,0.121
				c-5.212-0.487-10.591-1.508-14.807-4.612c-4.98-3.666-7.633-9.743-8.947-15.786c-1.314-6.043-1.507-12.282-2.738-18.342
				c-0.525-0.836-1.926-0.581-2.493,0.227c-0.568,0.808-0.545,1.876-0.494,2.862c0.499,9.678,1.562,19.327,3.181,28.882
				c-2.162,0.821-4.439,1.341-6.743,1.538c-0.577-15.523-1.154-31.046-1.731-46.569c-0.179-4.811-3.145-18.362-0.784-22.39
				C477.604,916.604,490.819,918.57,495.333,918.543z"/>
		</g>
		<g>
			<g>
				<path style="fill:#282828;" d="M538.497,316.554c-5.944-5.961-11.946-11.969-18.997-16.568
					c-1.666-1.086-3.493-2.122-5.482-2.126c-1.989-0.004-4.111,1.407-4.197,3.394c-0.081,1.866,1.522,3.319,2.984,4.482
					c17.091,13.59,34.182,27.179,51.272,40.769c2.813,2.237,5.57,4.748,8.566,6.707c2.462-2.348-3.063-5.485-4.555-6.983
					c-3.286-3.299-6.576-6.594-9.863-9.891C551.648,329.742,545.072,323.148,538.497,316.554z"/>
			</g>
			<g>
				<g>
					<path style="fill:#F2F2F2;" d="M486.617,291.255c0.224-0.6,0.562-1.15,0.903-1.692c1.166-1.854,2.388-3.672,3.662-5.453
						c0.236-0.329,0.485-0.668,0.838-0.867c0.448-0.252,1.007-0.249,1.449-0.51c0.45-0.267,0.703-0.759,0.995-1.192
						c0.973-1.447,2.773-2.444,4.469-2.043c0.764,0.181,1.439,0.617,2.095,1.047c2.765,1.813,5.541,3.69,7.723,6.174
						s3.739,5.678,3.611,8.982c-0.025,0.639-0.103,1.226-0.218,1.775c-0.329,1.566-1.006,2.78-1.93,3.704
						c-3.096,3.095-8.927,2.965-13.484,2.146c-2.737-0.492-5.511-1.433-7.471-3.405c-0.949-0.956-1.672-2.121-2.201-3.36
						C486.343,294.888,485.982,292.96,486.617,291.255z"/>
				</g>
				<g>
					<path style="fill:#D6D6D6;" d="M504.891,303.003c1.932-0.283,3.629-0.995,5.322-1.823c0.924-0.924,1.601-2.138,1.93-3.704
						c-0.025-1.063-0.128-2.129-0.378-3.158c-0.336-1.386-0.879-2.767-1.41-4.089c-0.453-1.129-0.944-2.203-1.731-3.148
						c-0.789-0.948-1.841-1.797-2.87-2.477c-0.068-0.045-0.124,0.063-0.06,0.109c1.063,0.768,2.199,1.741,2.963,2.812
						c0.709,0.995,1.161,2.123,1.576,3.264c0.433,1.19,0.907,2.395,1.199,3.628c0.277,1.171,0.346,2.375,0.355,3.575
						c-0.262-2.041-0.767-4.003-1.572-5.933c-0.455-1.092-0.895-2.233-1.49-3.258c-0.593-1.022-1.364-1.893-2.177-2.743
						c-0.071-0.074-0.178,0.04-0.11,0.115c0.779,0.857,1.517,1.738,2.075,2.758c0.599,1.094,1.047,2.32,1.504,3.48
						c0.445,1.132,0.781,2.27,1.033,3.427c-0.079-0.27-0.164-0.54-0.262-0.81c-0.435-1.195-0.826-2.392-1.354-3.552
						c-1.006-2.205-2.518-3.958-4.455-5.387c-0.062-0.046-0.14,0.062-0.08,0.109c2.037,1.591,3.516,3.549,4.495,5.948
						c0.467,1.144,0.85,2.313,1.258,3.479c0.097,0.277,0.175,0.557,0.243,0.837c-0.027-0.056-0.055-0.113-0.082-0.169
						c-0.464-0.968-0.878-1.958-1.375-2.91c-0.46-0.882-0.92-1.815-1.547-2.592c-0.692-0.858-1.509-1.612-2.317-2.358
						c-0.034-0.031-0.082,0.019-0.049,0.052c0.729,0.712,1.453,1.429,2.092,2.224c0.672,0.835,1.152,1.836,1.633,2.79
						c0.35,0.694,0.657,1.408,0.976,2.116c-0.311-0.524-0.631-1.043-0.964-1.549c-0.543-0.826-1.073-1.714-1.738-2.447
						c-0.693-0.763-1.507-1.362-2.341-1.958c-0.025-0.017-0.055,0.025-0.031,0.042c0.848,0.637,1.678,1.279,2.359,2.1
						c0.627,0.755,1.135,1.65,1.654,2.483c0.633,1.019,1.388,2.128,1.916,3.288c-0.219-0.305-0.463-0.592-0.713-0.883
						c-0.612-0.713-1.132-1.493-1.773-2.185c-1.306-1.407-2.978-2.438-4.607-3.429c-0.09-0.055-0.168,0.087-0.079,0.143
						c1.561,0.979,3.176,1.994,4.428,3.362c0.635,0.694,1.146,1.476,1.738,2.202c0.381,0.467,0.725,0.922,1.039,1.419
						c-0.01-0.005-0.019-0.011-0.029-0.016c-0.208-0.186-0.414-0.372-0.62-0.559c-0.524-0.828-1.131-1.598-1.85-2.302
						c-1.257-1.231-2.641-1.883-4.28-2.48c-0.081-0.03-0.112,0.1-0.033,0.129c0.8,0.299,1.65,0.595,2.388,1.03
						c0.751,0.444,1.358,1.04,1.958,1.665c0.382,0.397,0.718,0.819,1.038,1.256c-0.701-0.624-1.42-1.227-2.216-1.75
						c-1.66-1.091-3.425-2.028-5.108-3.088c-0.115-0.072-0.214,0.11-0.102,0.183c1.595,1.042,3.259,1.979,4.846,3.031
						c0.818,0.543,1.576,1.161,2.319,1.802c0.167,0.144,0.328,0.294,0.488,0.448c-0.168-0.086-0.339-0.171-0.51-0.255
						c-0.925-0.578-1.902-1.085-2.876-1.572c-2.163-1.081-4.292-2.166-6.385-3.379c-0.085-0.049-0.158,0.083-0.074,0.133
						c1.991,1.191,4.005,2.282,6.076,3.327c-0.131-0.057-0.26-0.117-0.391-0.173c-2.359-1.022-4.741-2.006-7.003-3.231
						c-0.102-0.055-0.188,0.101-0.087,0.157c2.24,1.26,4.603,2.282,6.94,3.345c1.066,0.484,2.127,0.973,3.185,1.476
						c0.26,0.124,0.523,0.242,0.784,0.362c0.444,0.315,0.86,0.662,1.271,1.016c0.013,0.025,0.025,0.051,0.038,0.076
						c-0.314-0.114-0.628-0.228-0.942-0.342c-1.542-0.878-3.259-1.508-4.857-2.241c-2.114-0.971-4.191-2.017-6.246-3.106
						c-0.093-0.049-0.172,0.092-0.08,0.143c2.037,1.118,4.095,2.203,6.199,3.19c0.962,0.452,1.93,0.892,2.894,1.339
						c-0.814-0.247-1.628-0.495-2.437-0.763c-2.324-0.768-4.534-1.862-6.707-2.981c-0.087-0.045-0.16,0.087-0.074,0.133
						c2.094,1.12,4.228,2.234,6.473,3.023c1.107,0.389,2.218,0.747,3.34,1.088c0.316,0.096,0.629,0.207,0.941,0.323
						c-0.233-0.043-0.466-0.086-0.7-0.127c-1.164-0.204-2.313-0.466-3.455-0.771c-2.43-0.648-4.612-1.718-6.817-2.901
						c-0.055-0.03-0.101,0.054-0.047,0.085c2.03,1.135,4.05,2.21,6.287,2.883c1.13,0.34,2.275,0.637,3.432,0.865
						c0.401,0.079,0.803,0.153,1.204,0.23c-0.361-0.029-0.722-0.058-1.08-0.08c-1.337-0.083-2.682-0.224-3.996-0.487
						c-2.522-0.505-4.921-1.161-7.252-2.266c-0.132-0.063-0.243,0.135-0.111,0.199c2.34,1.132,4.752,1.817,7.292,2.347
						c0.114,0.024,0.229,0.042,0.344,0.064c-2.578-0.248-5.106-0.747-7.612-1.392c-0.081-0.021-0.111,0.103-0.031,0.125
						c4.167,1.146,8.476,1.811,12.802,1.857c0.352,0.029,0.704,0.054,1.054,0.071c-0.014,0-0.029,0.001-0.046,0.006
						c-0.125,0.043-0.251,0.083-0.376,0.125c-0.55-0.026-1.1-0.034-1.629-0.06c-1.389-0.067-2.781-0.137-4.168-0.234
						c-1.474-0.102-2.965-0.264-4.416-0.553c-1.489-0.296-2.836-0.906-4.159-1.634c-0.111-0.061-0.205,0.109-0.095,0.171
						c1.18,0.67,2.379,1.26,3.699,1.595c1.345,0.341,2.749,0.503,4.127,0.64c1.482,0.147,2.978,0.224,4.466,0.297
						c0.438,0.022,0.884,0.035,1.331,0.052c-0.097,0.031-0.194,0.06-0.292,0.09c-0.205,0.043-0.41,0.084-0.615,0.123
						c-1.918,0.074-3.869-0.057-5.706-0.305c-2.735-0.368-5.652-0.921-8.097-2.252c-0.087-0.048-0.162,0.088-0.075,0.135
						c2.557,1.392,5.51,2.03,8.377,2.414c0.648,0.087,1.296,0.149,1.945,0.194c-0.53,0.004-1.06,0.005-1.588-0.004
						c-2.844-0.046-5.66-0.609-8.412-1.283c-0.152-0.037-0.21,0.196-0.059,0.235c2.68,0.678,5.418,1.244,8.189,1.348
						c0.478,0.018,0.955,0.025,1.432,0.029c-0.744,0.05-1.492,0.08-2.248,0.086c-2.591,0.02-5.249-0.067-7.778-0.667
						c-0.12-0.029-0.166,0.156-0.047,0.185c2.542,0.631,5.221,0.747,7.831,0.754c1.175,0.003,2.368-0.025,3.554-0.124
						c-1.015,0.212-2.042,0.371-3.093,0.456c-2.614,0.213-5.253,0.142-7.872,0.097c-0.152-0.003-0.145,0.231,0.005,0.235
						c3.836,0.089,7.672,0.154,11.396-0.568c-0.634,0.181-1.273,0.347-1.917,0.484c-2.496,0.53-5.004,0.753-7.545,0.897
						c-0.077,0.004-0.074,0.123,0.003,0.12c2.603-0.104,5.183-0.281,7.74-0.811c1.269-0.263,2.533-0.615,3.763-1.024
						c0.044-0.015,0.093-0.03,0.138-0.045c-0.938,0.377-1.885,0.729-2.838,1.038c-1.365,0.442-2.74,0.689-4.134,0.869
						c-1.985,0.079-3.973,0.035-5.96-0.059c-0.143-0.007-0.136,0.213,0.005,0.221c1.116,0.064,2.231,0.111,3.346,0.129
						c-0.109,0.025-0.103,0.201,0.016,0.19c0.683-0.062,1.359-0.123,2.031-0.193c1.15-0.023,2.3-0.084,3.45-0.199
						c1.249-0.125,2.553-0.328,3.741-0.754c-1.089,0.428-2.207,0.74-3.37,0.913c-2.547,0.379-5.313,0.495-7.857,0.052
						c-0.12-0.021-0.168,0.162-0.047,0.185C499.454,303.445,502.269,303.387,504.891,303.003z M510.778,299.346
						c-0.006,0.003-0.012,0.006-0.018,0.009c-0.011-0.006-0.023-0.009-0.036-0.012C510.742,299.344,510.76,299.345,510.778,299.346z
						 M508.357,301.364c-1.297,0.522-2.725,0.745-4.107,0.894c-0.069,0.007-0.137,0.012-0.206,0.019
						c0.555-0.117,1.108-0.257,1.66-0.429c0.983-0.305,1.959-0.628,2.899-1.049c0.39-0.175,0.787-0.336,1.185-0.496
						c0.382-0.023,0.764-0.047,1.146-0.071c-0.267,0.099-0.52,0.229-0.782,0.366C509.572,300.9,508.962,301.12,508.357,301.364z"/>
				</g>
			</g>
		</g>
		<g>
			<g>
				<path style="fill:#282828;" d="M542.586,317.376c-3.72-7.529-13.901-23.112-18.333-30.205c-1.047-1.676-2.197-3.398-3.457-4.437
					c-1.26-1.039-2.615-1.096-2.685,0.336c-0.065,1.345,0.939,3.261,1.856,4.887c10.722,19.008,27.87,46.006,38.593,65.015
					c1.765,3.129,3.492,6.432,5.375,9.45c1.578-0.463-1.898-5.674-2.832-7.566c-2.056-4.165-4.115-8.329-6.172-12.493
					C550.816,334.034,546.701,325.705,542.586,317.376z"/>
			</g>
			<g>
				<g>
					<path style="fill:#F2F2F2;" d="M503.49,263.548c0.146-0.329,0.365-0.562,0.585-0.787c0.753-0.771,1.541-1.487,2.362-2.146
						c0.152-0.122,0.312-0.244,0.537-0.208c0.286,0.046,0.64,0.34,0.922,0.375c0.287,0.036,0.451-0.198,0.639-0.368
						c0.627-0.569,1.775-0.373,2.847,0.809c0.483,0.532,0.907,1.208,1.319,1.87c1.738,2.789,3.482,5.63,4.845,8.614
						c1.363,2.984,2.325,6.17,2.218,8.56c-0.021,0.462-0.074,0.858-0.152,1.206c-0.221,0.993-0.659,1.543-1.251,1.748
						c-1.985,0.689-5.677-2.446-8.558-5.43c-1.73-1.792-3.48-3.937-4.707-6.424c-0.594-1.205-1.043-2.448-1.368-3.645
						C503.289,266.106,503.074,264.484,503.49,263.548z"/>
				</g>
				<g>
					<path style="fill:#D6D6D6;" d="M514.976,281.803c1.226,0.796,2.307,1.151,3.385,1.418c0.592-0.206,1.031-0.755,1.251-1.748
						c-0.008-0.803-0.065-1.649-0.215-2.545c-0.203-1.206-0.536-2.515-0.862-3.775c-0.279-1.076-0.582-2.13-1.072-3.242
						c-0.493-1.116-1.153-2.295-1.799-3.337c-0.043-0.069-0.079-0.018-0.039,0.049c0.668,1.125,1.38,2.44,1.855,3.635
						c0.442,1.11,0.719,2.183,0.973,3.248c0.265,1.11,0.556,2.253,0.732,3.322c0.167,1.015,0.201,1.946,0.198,2.843
						c-0.15-1.654-0.455-3.376-0.95-5.23c-0.28-1.049-0.55-2.127-0.919-3.198c-0.368-1.068-0.85-2.118-1.358-3.173
						c-0.044-0.092-0.113-0.063-0.07,0.028c0.487,1.043,0.947,2.083,1.293,3.132c0.371,1.125,0.646,2.271,0.926,3.371
						c0.273,1.074,0.477,2.095,0.628,3.086c-0.048-0.242-0.1-0.486-0.16-0.739c-0.266-1.115-0.505-2.209-0.831-3.346
						c-0.62-2.163-1.564-4.255-2.78-6.327c-0.039-0.066-0.089-0.027-0.052,0.039c1.278,2.244,2.2,4.47,2.802,6.765
						c0.287,1.094,0.521,2.163,0.77,3.242c0.059,0.257,0.107,0.505,0.148,0.749c-0.017-0.056-0.034-0.113-0.051-0.169
						c-0.286-0.961-0.542-1.914-0.849-2.88c-0.285-0.896-0.569-1.829-0.96-2.733c-0.432-0.999-0.944-1.985-1.45-2.961
						c-0.021-0.041-0.052-0.028-0.032,0.013c0.456,0.909,0.909,1.82,1.308,2.744c0.419,0.971,0.716,1.965,1.013,2.925
						c0.216,0.698,0.405,1.389,0.602,2.082c-0.193-0.552-0.392-1.104-0.599-1.654c-0.337-0.896-0.666-1.833-1.082-2.725
						c-0.433-0.928-0.944-1.798-1.468-2.676c-0.015-0.026-0.035-0.01-0.02,0.015c0.532,0.916,1.053,1.825,1.479,2.791
						c0.392,0.888,0.706,1.818,1.029,2.708c0.393,1.087,0.863,2.306,1.189,3.443c-0.137-0.341-0.289-0.682-0.445-1.028
						c-0.382-0.849-0.705-1.7-1.106-2.548c-0.816-1.727-1.868-3.364-2.892-4.95c-0.057-0.088-0.107-0.023-0.051,0.065
						c0.982,1.541,1.997,3.137,2.78,4.807c0.397,0.847,0.715,1.694,1.084,2.543c0.238,0.546,0.452,1.063,0.647,1.596
						c-0.006-0.009-0.012-0.018-0.018-0.027c-0.13-0.246-0.26-0.493-0.389-0.739c-0.326-0.888-0.704-1.778-1.154-2.675
						c-0.787-1.57-1.658-2.776-2.692-4.074c-0.051-0.064-0.072,0.016-0.022,0.079c0.504,0.639,1.041,1.302,1.505,2.01
						c0.472,0.721,0.852,1.481,1.228,2.258c0.239,0.494,0.448,0.983,0.648,1.475c-0.439-0.829-0.89-1.652-1.391-2.456
						c-1.043-1.676-2.154-3.293-3.212-4.957c-0.072-0.114-0.136-0.029-0.066,0.083c1.003,1.606,2.049,3.169,3.046,4.778
						c0.514,0.83,0.99,1.685,1.455,2.548c0.105,0.194,0.206,0.39,0.306,0.587c-0.106-0.152-0.213-0.303-0.321-0.455
						c-0.581-0.912-1.196-1.797-1.81-2.667c-1.362-1.93-2.702-3.846-4.019-5.839c-0.054-0.081-0.1-0.02-0.048,0.06
						c1.252,1.923,2.52,3.783,3.823,5.639c-0.082-0.111-0.164-0.222-0.247-0.333c-1.486-1.989-2.988-3.961-4.411-6.051
						c-0.064-0.094-0.12-0.023-0.057,0.071c1.409,2.103,2.898,4.095,4.371,6.102c0.672,0.916,1.34,1.832,2.006,2.756
						c0.164,0.228,0.329,0.452,0.494,0.678c0.279,0.466,0.54,0.94,0.797,1.418c0.008,0.026,0.016,0.051,0.023,0.076
						c-0.198-0.248-0.396-0.497-0.594-0.745c-0.97-1.456-2.053-2.819-3.059-4.197c-1.332-1.823-2.639-3.683-3.933-5.564
						c-0.059-0.085-0.11-0.021-0.052,0.065c1.282,1.893,2.577,3.771,3.903,5.602c0.606,0.837,1.216,1.668,1.823,2.504
						c-0.514-0.608-1.027-1.216-1.538-1.836c-1.466-1.782-2.858-3.747-4.226-5.711c-0.055-0.079-0.102-0.019-0.048,0.061
						c1.318,1.924,2.661,3.864,4.077,5.62c0.698,0.866,1.399,1.711,2.107,2.549c0.2,0.236,0.397,0.482,0.594,0.731
						c-0.147-0.154-0.295-0.307-0.442-0.459c-0.736-0.758-1.462-1.552-2.183-2.373c-1.534-1.747-2.909-3.68-4.296-5.709
						c-0.035-0.051-0.065-0.013-0.03,0.038c1.277,1.902,2.548,3.753,3.961,5.419c0.713,0.841,1.436,1.658,2.168,2.431
						c0.253,0.268,0.507,0.532,0.761,0.798c-0.229-0.21-0.457-0.419-0.683-0.622c-0.847-0.759-1.697-1.564-2.528-2.445
						c-1.594-1.689-3.109-3.427-4.576-5.463c-0.083-0.116-0.155-0.026-0.072,0.09c1.474,2.061,2.996,3.827,4.601,5.544
						c0.072,0.077,0.145,0.151,0.217,0.227c-1.631-1.527-3.229-3.216-4.812-5.001c-0.051-0.058-0.071,0.019-0.021,0.077
						c2.631,3.023,5.355,5.762,8.096,8.051c0.223,0.205,0.446,0.407,0.668,0.602c-0.009-0.007-0.019-0.015-0.029-0.02
						c-0.08-0.033-0.159-0.069-0.239-0.103c-0.348-0.306-0.696-0.598-1.031-0.893c-0.88-0.774-1.761-1.551-2.639-2.345
						c-0.933-0.844-1.876-1.741-2.793-2.712c-0.941-0.996-1.79-2.151-2.622-3.382c-0.07-0.103-0.13-0.026-0.061,0.078
						c0.742,1.113,1.497,2.176,2.331,3.113c0.849,0.954,1.737,1.806,2.609,2.626c0.938,0.881,1.885,1.718,2.826,2.548
						c0.277,0.244,0.56,0.486,0.843,0.732c-0.062-0.028-0.124-0.056-0.185-0.085c-0.13-0.074-0.26-0.151-0.39-0.229
						c-1.216-0.944-2.451-2.058-3.612-3.199c-1.73-1.699-3.573-3.629-5.112-5.893c-0.055-0.081-0.103-0.019-0.048,0.061
						c1.609,2.367,3.475,4.38,5.288,6.159c0.41,0.402,0.82,0.786,1.231,1.158c-0.336-0.273-0.671-0.549-1.006-0.83
						c-1.802-1.516-3.581-3.401-5.319-5.337c-0.096-0.107-0.134,0.037-0.039,0.144c1.692,1.9,3.423,3.748,5.177,5.268
						c0.303,0.262,0.605,0.516,0.907,0.768c-0.472-0.35-0.946-0.718-1.425-1.107c-1.641-1.335-3.324-2.784-4.922-4.548
						c-0.076-0.084-0.106,0.029-0.031,0.113c1.606,1.794,3.301,3.275,4.955,4.64c0.745,0.615,1.5,1.215,2.252,1.759
						c-0.644-0.371-1.297-0.788-1.963-1.272c-1.658-1.204-3.329-2.631-4.988-4.029c-0.096-0.081-0.094,0.096,0.002,0.177
						c2.429,2.065,4.859,4.112,7.224,5.516c-0.403-0.196-0.809-0.405-1.218-0.639c-1.585-0.906-3.175-2.047-4.786-3.264
						c-0.049-0.037-0.048,0.053,0.001,0.09c1.65,1.279,3.285,2.491,4.909,3.43c0.806,0.466,1.609,0.862,2.391,1.199
						c0.028,0.012,0.059,0.026,0.088,0.039c-0.597-0.208-1.199-0.44-1.806-0.707c-0.868-0.383-1.741-0.915-2.625-1.508
						c-1.258-0.975-2.517-2.044-3.775-3.149c-0.09-0.08-0.088,0.087,0.001,0.167c0.707,0.629,1.413,1.245,2.118,1.839
						c-0.069-0.039-0.067,0.095,0.009,0.15c0.433,0.31,0.862,0.617,1.288,0.914c0.729,0.582,1.458,1.136,2.187,1.649
						c0.792,0.558,1.62,1.086,2.375,1.388c-0.693-0.249-1.404-0.6-2.142-1.077c-1.616-1.045-3.369-2.4-4.978-4.055
						c-0.076-0.078-0.108,0.033-0.031,0.113C511.529,279.299,513.312,280.723,514.976,281.803z M518.733,282.151
						c-0.004-0.001-0.008-0.002-0.012-0.003c-0.007-0.01-0.015-0.019-0.023-0.027C518.71,282.13,518.722,282.141,518.733,282.151z
						 M517.184,282.39c-0.825-0.287-1.732-0.865-2.609-1.475c-0.044-0.03-0.087-0.063-0.131-0.093
						c0.352,0.202,0.704,0.386,1.055,0.546c0.625,0.285,1.245,0.554,1.844,0.73c0.248,0.073,0.501,0.16,0.755,0.249
						c0.242,0.182,0.484,0.363,0.726,0.544c-0.17-0.065-0.331-0.1-0.499-0.135C517.957,282.678,517.57,282.524,517.184,282.39z"/>
				</g>
			</g>
		</g>
		<g>
			<path style="fill:#EAEAEA;" d="M346.123,587.193c-18.925-11.308-38.791-21.039-59.324-29.067
				c-5.047-1.974-10.135-3.854-15.261-5.611c-5.865-2.012-7.107-1.688-11.694,2.368c-7.416,6.562-13.875,14.206-19.089,22.626
				c-0.286,0.462-0.576,0.956-0.587,1.5c-0.018,0.825,0.547,1.37,1.298,1.754c1.054,4.161,1.207,8.535,1.286,12.847
				c0.444,24.649,0.797,49.298,1.063,73.949c0.035,3.37,0.197,7.077,2.485,9.552c1.476,1.597,3.601,2.396,5.644,3.14
				c14.082,5.137,28.164,10.272,42.246,15.41c7.505,2.738,15.168,5.508,23.155,5.779c9.834-9.667,19.668-19.333,29.503-29
				C347.316,643.662,348.566,615.869,346.123,587.193z"/>
		</g>
		<g>
			<g>
				<path style="fill:#595959;" d="M242.56,579.15c9.382,3.179,16.429,11.33,25.274,15.666c5.688,2.787,12.034,4.064,17.689,6.966
					c4.084,2.096,7.604,5.165,12.074,6.476c8.723,2.559,15.53,1.556,23.112-3.138c5.803-3.592,11.248-7.462,17.371-10.47
					c3.416-1.677,4.001-1.452,6.741-4.049c0.941-0.895,1.655-4.031,0.691-3.215c-4.199,3.557-8.974,4.929-13.572,7.698
					c-3.767,2.266-7.354,5.007-11.073,7.375c-12.784,8.138-22.102,4.014-34.605-1.94c-8.634-4.111-17.765-6.204-25.867-11.529
					c-5.761-3.786-11.088-8.133-17.772-10.064C242.478,578.883,242.42,579.103,242.56,579.15z"/>
			</g>
			<g>
				<path style="fill:#595959;" d="M346.372,629.348c-7.063,5.324-13.007,9.468-19.916,15.117
					c-4.113,3.365-7.118,6.011-10.439,7.458c-0.004-6.509-0.254-13.036-0.75-19.512c-0.025-0.335-0.547-0.342-0.527,0
					c0.382,6.607,0.329,13.208,0.406,19.815c-2.964,1.079-6.249,1.251-10.86,0.055c-3.581-0.929-7.17-1.827-10.753-2.752
					c0.121-1.805,0.373-3.903-0.234-5.406c-0.647-1.606-1.904-1.542-3.378-1.743c-1.483-0.203-2.826-0.955-4.353-0.518
					c-0.966,0.278-1.666,1.366-1.342,2.365c0.307,0.951,0.472,1.915,0.592,2.886c-3.802-1.129-7.582-2.343-11.288-3.846
					c-3.122-1.266-6.154-2.763-9.181-4.276c0.108-0.452,0.196-0.901,0.316-1.355c1.057-3.987-2.191-3.486-4.526-5.851
					c-0.757-0.766-1.808-0.45-2.387,0.307c-0.167,0.218-0.278,0.446-0.408,0.671c-0.19,0.059-0.358,0.17-0.408,0.408
					c-0.057,0.283-0.101,0.569-0.156,0.854c-0.124,0.388-0.151,0.801-0.225,1.204c-3.919-1.769-7.937-3.285-12.231-4.079
					c-0.821-0.152-1.183,1.061-0.349,1.269c4.234,1.061,8.253,2.844,12.208,4.822c-0.152,0.682-0.302,1.37-0.382,2.076
					c-0.108,0.567-0.201,1.142-0.324,1.705c-0.25,1.141-0.874,2.443-0.514,3.64c0.446,1.477,2.134,1.944,3.35,2.564
					c1.105,0.565,2.312,1.17,3.526,0.448c1.006-0.598,1.156-1.637,1.315-2.675c0.194-1.282,0.421-2.546,0.679-3.802
					c2.997,1.556,6.008,3.052,9.097,4.247c3.866,1.496,7.86,2.816,11.896,4.034c0.053,0.205,0.064,0.412,0.194,0.611
					c-0.183,1.461-0.461,2.926-0.602,4.318c-0.142,1.416-0.342,2.892,0.77,3.974c1.121,1.094,3,0.856,4.426,0.966
					c1.533,0.115,2.517-0.192,3.206-1.67c0.803-1.726,0.726-3.91,0.675-5.858c3.908,0.935,7.83,1.763,11.738,2.343
					c4.554,0.675,7.211,0.721,9.936-0.325c0.011,0.764,0.015,1.529,0.033,2.295c0.013,0.547,0.837,0.547,0.849,0
					c0.02-0.883-0.029-1.772-0.022-2.657c1.607-0.75,3.301-1.869,5.481-3.517c8.954-6.765,15.957-11.357,24.907-18.031
					C347.239,631.312,347.199,628.724,346.372,629.348z"/>
			</g>
			<g>
				<path style="fill:#595959;" d="M257.474,615.189c-0.194,2.412,1.961,3.303,3.696,4.506c0.488,0.338,1.134,0.247,1.628,0
					c1.75-0.871,2.237-2.954,2.354-5.051c1.955,1.072,3.915,2.136,5.949,3.063c4.411,2.012,9.169,3.672,14.007,5.023
					c0.015,0.364,0.035,0.726,0.064,1.101c0.064,0.794-0.155,1.582-0.066,2.357c0.174,1.507,1.214,2.1,2.568,2.394
					c1.361,0.296,2.743,1.408,4.223,1.035c1.218-0.307,1.842-1.377,1.995-2.546c0.099-0.744,0.147-1.503,0.194-2.262
					c1.162,0.22,2.332,0.479,3.48,0.658c9.029,1.415,13.729,1.767,21.425-3.343c5.808-3.855,10.832-8.427,16.993-11.805
					c3.815-2.092,6.242-2.868,9.582-5.691c1.662-1.406,0.47-4.823-1.174-3.381c-5.898,5.175-13.447,8.315-19.665,13.158
					c-5.794,4.512-10.728,9.729-18.598,9.815c-3.65,0.039-8.096-0.878-11.858-1.721c0.005-0.048,0.005-0.097,0.011-0.144
					c0.174-1.436,0.627-3.585-0.203-4.935c-0.783-1.267-2.957-1.887-4.235-2.5c-0.891-0.424-1.862-0.258-2.456,0.414
					c-0.322-0.02-0.66,0.113-0.819,0.398c-0.753,1.359-1.059,2.987-1.282,4.552c-7.015-1.957-13.89-4.534-20.115-8.246
					c-0.009-0.432-0.018-0.841-0.018-1.207c0.002-1.476,0.344-3.049-0.682-4.263c-0.799-0.944-2.195-1.723-3.433-1.783
					c-0.258-0.013-0.49,0.055-0.702,0.161c-0.269-0.567-1.302-0.399-1.264,0.311c0.053,1.004-0.047,1.966-0.205,2.911
					c-5.205-3.18-10.542-6.167-16.385-8.016c-0.807-0.254-1.377,1.024-0.585,1.39c5.726,2.646,11.064,5.96,16.438,9.188
					C257.976,612.195,257.597,613.655,257.474,615.189z"/>
			</g>
			<g>
				<path style="fill:#595959;" d="M316.282,664.247c-0.002-1.243-1.92-1.245-1.931,0c-0.057,6.056-0.811,12.579,0.139,18.587
					c0.664,4.195,1.619,8.359,1.957,12.624c0.108,1.344,2.22,1.353,2.107,0c-0.351-4.232-1.503-8.335-1.741-12.624
					C316.471,676.652,316.288,670.445,316.282,664.247z"/>
			</g>
			<g>
				<path style="fill:#595959;" d="M275.552,571.348c5.22,4.558,6.624,0.863,7.615-3.006c1.328-5.176,2.652-10.352,3.978-15.525
					c0.468-1.831,1.202-3.949,3.012-4.483c2.473-0.733,4.483,2.038,5.446,4.43c2.696,6.69,3.583,19.185,3.718,26.393
					c0.009,0.494,0.029,1.033,0.349,1.41c0.362,0.426,0.982,0.497,1.54,0.523c2.196,0.097,4.405-0.079,6.56-0.521
					c-1.41-6.637-2.244-18.585-3.652-25.222c-0.637-2.997-1.29-6.041-2.732-8.742c-1.445-2.703-3.811-5.068-6.791-5.785
					c-3.133-0.752-6.496,0.441-8.985,2.487c-2.487,2.046-4.225,4.855-5.702,7.716C277.577,555.533,270.521,566.956,275.552,571.348z
					"/>
			</g>
		</g>
		<g>
			<path style="fill:#D1AC9D;" d="M367.955,327.59c-4.764-4.225-11.667-3.105-16.657,0.794c-4.99,3.899-8.48,10.042-11.754,16.08
				c-8.585,15.831-16.663,32.161-22.795,49.602c-10.201,29.008-14.793,60.383-19.308,91.436c-1.958,13.465-6.684,26.429-8.64,39.883
				c-0.772,3.402-1.663,6.771-3.524,9.848c-1.227,2.029-2.85,3.882-4.047,5.922c-1.927,3.284-2.699,7.026-2.199,10.663
				c0.27,1.963,1.567,4.342,3.962,4.283c2.538-0.063,6.524-1.606,6.799-3.684c0.293-2.218,0.589-4.477,1.676-6.517
				c1.086-2.039,3.11-3.863,5.748-4.364c-0.867-4.753-0.155-8.922,1.153-13.118c3.898-7.983,6.452-20.284,8.613-26.826
				c5.048-15.288,11.208-29.99,17.348-44.659c12.96-30.97,25.941-61.985,41.039-91.481c3.05-5.958,6.245-12.029,7.404-18.902
				C373.93,339.676,372.577,331.69,367.955,327.59z"/>
		</g>
	</g>
	<g>
		<g>
			<path style="fill:#EDEDED;" d="M705.048,378.813c6.604-17.133,14.788-33.592,22.984-50.022
				c3.074-6.163,8.028-12.984,14.894-12.451c4.157,0.323,7.689,3.519,9.408,7.317c1.719,3.798,1.898,8.111,1.64,12.272
				c-0.38,6.135-1.645,12.183-3.157,18.141c-6.835,26.923-27.769,49.453-46.899,69.594c-14.306,15.062-32.727,27.42-40.605,46.642
				c-3.162-1.611-6.325-3.221-9.487-4.831c-0.747-0.381-1.567-0.845-1.797-1.651c-0.238-0.834,0.251-1.684,0.719-2.414
				c8.581-13.358,18.031-25.901,25.717-40.016C686.354,406.906,698.986,394.146,705.048,378.813z"/>
		</g>
		<g>
			<path style="fill:#EDDCD1;" d="M743.174,288.44c4.967,6.178,12.349,9.819,19.487,13.268c5.828,2.817,12.039,5.707,18.48,5.058
				c11.201-1.128,18.387-12.079,23.912-21.888c8.288-14.716,16.804-30.244,16.996-47.132c0.175-15.328-7.073-30.571-19.07-40.112
				c-11.998-9.541-28.482-13.168-43.377-9.546c-17.903,4.354-38.665,16.912-34.196,37.668c2.023,9.397,5.471,18.286,7.127,27.818
				C734.555,265.227,735.465,278.852,743.174,288.44z"/>
		</g>
		<g>
			<path style="fill:#EDDDB2;" d="M720.956,206.911c-5.015,11.138-6.406,23.541-7.083,35.737c-0.06,1.09-0.09,2.276,0.547,3.163
				c1.067,1.487,3.289,1.32,5.091,0.995c18.862-3.404,37.724-6.808,56.586-10.212c6.389-1.153,14.09-1.872,18.289,3.079
				c2.3,2.712,2.856,6.465,3.108,10.011c0.596,8.379,0.007,16.842-1.743,25.058c4.971-6.393,7.033-14.614,7.676-22.688
				c0.371-4.657,1.492-10.742,6.13-11.31c4.562-0.559,7.303,5.507,6.103,9.944c-1.2,4.437-4.594,7.95-6.319,12.21
				c-1.343,3.317-1.623,6.949-1.994,10.508c-1.043,10-2.965,20.045-7.329,29.103c-4.364,9.058-11.383,17.114-20.56,21.22
				c7.532-3.046,15.065-6.092,22.597-9.138c7.909-3.198,15.819-6.397,23.68-9.713c5.591-2.358,11.301-4.873,15.585-9.17
				c2.931-2.94,5.059-6.595,6.725-10.398c8.305-18.959,5.338-40.96-0.593-60.79c-4.634-15.494-11.639-31.318-24.951-40.501
				c-15.503-10.695-35.929-10.063-54.679-8.286C748.526,177.562,729.145,188.722,720.956,206.911z"/>
		</g>
		<g>
			<path style="fill:#272826;" d="M843.84,780.09c-2.531-56.15,2.785-113.417,2.322-169.914c1.665-19.584-1.035-39.531-7.894-57.943
				c-0.426-1.143-0.888-2.313-1.735-3.187c-2.631-2.717-7.131-1.272-10.622,0.171c-33.475,13.842-73.013,10.583-103.533-8.96
				c-6.028,9.212-7.759,20.513-9.246,31.432c-2.405,17.652-5.039,35.268-5.685,52.997c-0.002,0.034-0.006,0.067-0.007,0.101l0.003,0
				c-0.137,3.807-0.214,7.618-0.141,11.437c0.42,22.099,4.673,43.874,7.996,65.655c2.168,14.209,4.074,28.516,4.255,42.912
				c0.148,11.782-1.499,22.551,1.129,34.087c6.471,28.407,6.487,59.355,9.224,88.379c2.93,31.081,3.417,30.078,5.812,61.205
				c0.095,1.24,0.19,2.479,0.284,3.719c1.563,0.419,25.429,5.93,25.429-0.269c1.914-60.418,6.234-88.747,8.148-149.166
				c0.805-25.424-1.027-111.318,5.398-135.541c2.648,0.266,5.295,0.532,7.943,0.798c14.552,79.952,29.387,187.912,43.939,267.864
				c1.281,7.04,2.836,14.635,7.461,19.172c4.626,4.536,13.264,3.266,14.63-3.751C844.678,870.195,846.595,841.214,843.84,780.09z"/>
		</g>
		<g>
			<path style="fill:#F2F2F2;" d="M851.323,545.844c-12.988-23.211-19.639-50.364-16.241-76.745
				c2.565-19.913,10.675-40.105,5.277-59.443c-2.803-10.039-9.012-18.708-14.418-27.62c-12.341-20.347-20.902-42.978-25.118-66.398
				c-0.216-1.198-0.459-2.477-1.31-3.348c-1.763-1.803-4.756-0.803-7.11,0.102c-8.236,3.165-17.487,3.593-26.005,1.326
				c-4.824-1.284-6.021-3.119-9.005,0.976c-2.52,3.458-3.727,9.309-5.264,13.317c-6.912,18.02-12.939,36.646-14.395,56.004
				c-0.729,9.695-0.329,19.622-3.18,28.917c-2.331,7.603-6.719,14.377-10.264,21.496c-12.941,25.988-14.475,56.116-24.071,83.516
				c-1.563,4.461-3.354,8.912-3.832,13.615c-0.479,4.702,0.558,9.821,3.936,13.128c2.401,2.351,5.679,3.532,8.848,4.648
				c4.651,1.636,9.301,3.273,13.951,4.909c6.453,2.271,12.934,4.549,19.651,5.847c8.198,1.585,16.602,1.681,24.952,1.772
				c15.393,0.168,30.786,0.337,46.18,0.505c8.762,0.096,17.538,0.191,26.273-0.504c5.87-0.467,13.216-2.775,13.635-8.65
				C854.001,550.589,852.609,548.142,851.323,545.844z"/>
		</g>
		<g>
			<path style="fill:#3D322B;" d="M754.861,929.788c1.753-0.115,3.629-0.276,5.157,0.592c1.726,0.98,2.539,3.009,3.03,4.932
				c3.044,11.922-1.585,24.287-2.904,36.521c-0.785,7.286-0.388,14.679-1.493,21.923c-2.479-0.24-4.958-0.479-7.437-0.719
				c0.54-4.304,0.574-8.672,0.1-12.984c-0.151-1.376-0.375-2.803-1.167-3.939c-0.792-1.136-2.313-1.879-3.596-1.358
				c-1.134,0.46-1.717,1.695-2.158,2.836c-1.034,2.68-1.855,5.443-2.451,8.253c-0.33,1.552-0.63,3.202-1.673,4.398
				c-1.643,1.885-4.486,1.989-6.986,1.95c-9.161-0.144-18.322-0.288-27.482-0.432c-3.915-0.061-8.361-0.367-10.829-3.407
				c-3.012-3.709-1.201-9.529,2.244-12.839s8.091-5.007,12.128-7.561c4.407-2.788,8.124-6.656,10.736-11.17
				c4.486-7.754,4.598-19.381,10.505-26.107c2.462-2.803,5.227-2.298,8.629-1.771C744.419,929.714,749.591,930.134,754.861,929.788z
				"/>
		</g>
		<g>
			<path style="fill:#3D322B;" d="M850.417,920.221c0.823-0.045,1.716-0.037,2.38,0.451c0.454,0.334,0.736,0.848,0.985,1.354
				c3.335,6.769,3.214,14.644,4.576,22.066c1.921,10.467,6.827,20.1,10.819,29.964c1.159,2.863,2.26,5.847,2.183,8.934
				c-0.152,6.029-4.957,11.215-10.59,13.37c-5.633,2.155-11.914,1.792-17.853,0.74c-1.228-0.218-2.468-0.469-3.584-1.027
				c-1.141-0.571-2.106-1.441-2.971-2.378c-7.251-7.847-7.641-19.607-8.043-30.284c-0.231-6.13-0.6-12.256-1.106-18.37
				c-0.429-5.179-2.327-11.687-1.41-16.815c0.772-4.315,4.009-4.596,7.771-5.129C839.209,922.301,844.715,920.531,850.417,920.221z"
				/>
		</g>
		<g>
			<path style="fill:#B5947F;" d="M813.362,632.538c-0.917,60.801-4.184,122.577-24.216,179.991
				c7.269-10.694,23.648-9.719,35.295-4.103c11.647,5.616,21.956,14.665,34.69,16.91c10.943,1.929,22.732-1.825,30.545-9.728
				c15.052-15.225,12.884-39.871,9.585-61.025c-16.594-106.397-35.418-212.556-45.604-319.757
				c-2.002-21.074-3.874-42.882-14.018-61.462c-5.935-10.87-14.676-20.607-17.107-32.751c-1.245-6.22-0.744-12.777-2.757-18.793
				c-2.013-6.016-18.634-12.589-24.778-11.01c-9.802,17.409,7.035,38.3,8.762,57.905c1.863,21.155,3.463,42.334,4.8,63.529
				c2.723,43.161,4.355,86.39,4.895,129.634C813.748,585.431,813.71,608.987,813.362,632.538z"/>
		</g>
		<g>
			<path style="fill:#B5947F;" d="M729.646,695.312c2.528,34.742,6.522,70.314-2.668,103.914c-0.977,3.572-2.155,7.207-4.544,10.036
				c-6.164,7.3-17.347,6.544-26.894,6.159c-22.346-0.902-20.82-9.968-40.927-0.175c4.961-46.107,9.922-92.214,14.883-138.321
				c5.745-53.399,11.573-107.203,27.616-158.459c22.41-71.598,25.886-129.273,43.674-202.156c1.158-4.744,17.049-3.233,21.593-5.499
				c4.409,6.399-3.584,24.525-5.403,32.384c-2.866,12.387-5.53,24.82-7.994,37.293c-4.927,24.946-9.046,50.052-12.355,75.264
				c-6.666,50.795-10.038,102.023-10.078,153.254C726.526,637.8,727.556,666.594,729.646,695.312z"/>
		</g>
		<g>
			<g>
				<path style="fill:#282828;" d="M839.11,565.668c0.564-7.5,1.127-15.066,0.123-22.52c-0.237-1.761-0.603-3.602-1.76-4.95
					c-1.158-1.348-3.351-1.961-4.745-0.859c-1.309,1.034-1.357,2.967-1.291,4.634c0.779,19.492,1.559,38.984,2.338,58.477
					c0.128,3.209,0.039,6.539,0.461,9.709c3.025,0.296,1.924-5.273,2.067-7.157c0.314-4.148,0.624-8.296,0.936-12.444
					C837.862,582.261,838.486,573.965,839.11,565.668z"/>
			</g>
			<g>
				<g>
					<path style="fill:#F2F2F2;" d="M825.952,515.808c0.536-0.199,1.106-0.291,1.671-0.376c1.934-0.293,3.878-0.528,5.826-0.704
						c0.361-0.033,0.735-0.062,1.075,0.061c0.432,0.156,0.756,0.536,1.191,0.682c0.443,0.149,0.923,0.033,1.387-0.023
						c1.546-0.186,3.272,0.45,3.99,1.831c0.324,0.622,0.422,1.333,0.514,2.029c0.387,2.928,0.737,5.902,0.33,8.827
						s-1.66,5.842-3.97,7.684c-0.447,0.356-0.889,0.646-1.328,0.888c-1.252,0.691-2.468,0.942-3.632,0.855
						c-3.9-0.288-7.214-4.309-9.32-7.87c-1.264-2.139-2.247-4.565-2.056-7.042c0.092-1.2,0.459-2.369,0.989-3.45
						C823.334,517.742,824.428,516.373,825.952,515.808z"/>
				</g>
				<g>
					<path style="fill:#D6D6D6;" d="M828.668,535.026c1.319,1.142,2.791,1.875,4.339,2.537c1.164,0.086,2.38-0.164,3.632-0.855
						c0.705-0.637,1.366-1.328,1.916-2.098c0.741-1.036,1.359-2.209,1.943-3.34c0.499-0.966,0.939-1.925,1.12-3.008
						c0.181-1.087,0.141-2.294,0.001-3.387c-0.009-0.072-0.115-0.047-0.109,0.023c0.101,1.167,0.106,2.504-0.174,3.646
						c-0.259,1.06-0.759,2.024-1.289,2.971c-0.552,0.987-1.091,2.011-1.755,2.928c-0.63,0.871-1.405,1.62-2.212,2.326
						c1.228-1.368,2.261-2.855,3.096-4.525c0.473-0.945,0.988-1.909,1.335-2.909c0.345-0.997,0.485-2.027,0.585-3.073
						c0.009-0.092-0.131-0.097-0.142-0.007c-0.126,1.027-0.291,2.04-0.655,3.013c-0.39,1.043-0.958,2.062-1.477,3.048
						c-0.506,0.962-1.08,1.853-1.716,2.698c0.137-0.211,0.27-0.426,0.395-0.65c0.555-0.991,1.137-1.955,1.612-2.989
						c0.905-1.967,1.209-4.013,1.045-6.157c-0.005-0.069-0.123-0.059-0.12,0.009c0.113,2.307-0.35,4.449-1.401,6.512
						c-0.501,0.983-1.069,1.925-1.619,2.881c-0.131,0.227-0.274,0.443-0.424,0.653c0.022-0.052,0.044-0.103,0.066-0.154
						c0.384-0.878,0.812-1.737,1.166-2.628c0.328-0.826,0.691-1.682,0.851-2.559c0.177-0.969,0.21-1.962,0.243-2.944
						c0.001-0.041-0.061-0.044-0.064-0.003c-0.056,0.909-0.119,1.817-0.284,2.713c-0.173,0.942-0.57,1.85-0.935,2.733
						c-0.266,0.641-0.569,1.266-0.862,1.896c0.173-0.516,0.337-1.035,0.486-1.556c0.242-0.849,0.534-1.726,0.641-2.604
						c0.112-0.914,0.042-1.815-0.041-2.727c-0.003-0.027-0.049-0.023-0.047,0.004c0.063,0.945,0.114,1.881-0.044,2.821
						c-0.145,0.865-0.454,1.73-0.715,2.568c-0.32,1.023-0.63,2.181-1.106,3.215c0.078-0.326,0.13-0.659,0.181-0.998
						c0.126-0.83,0.35-1.637,0.444-2.474c0.19-1.705-0.088-3.437-0.368-5.118c-0.016-0.093-0.157-0.063-0.143,0.03
						c0.249,1.628,0.504,3.312,0.31,4.958c-0.099,0.835-0.33,1.636-0.476,2.461c-0.094,0.531-0.2,1.029-0.354,1.531
						c-0.002-0.01-0.004-0.02-0.006-0.029c0.004-0.249,0.01-0.498,0.016-0.746c0.254-0.838,0.421-1.698,0.478-2.595
						c0.099-1.569-0.267-2.885-0.82-4.343c-0.027-0.072-0.133-0.018-0.107,0.053c0.264,0.716,0.561,1.463,0.696,2.217
						c0.138,0.767,0.089,1.526,0.016,2.296c-0.046,0.49-0.135,0.964-0.244,1.435c0.013-0.838,0.001-1.676-0.11-2.52
						c-0.231-1.76-0.626-3.501-0.891-5.258c-0.018-0.12-0.199-0.08-0.184,0.038c0.226,1.687,0.563,3.359,0.777,5.047
						c0.111,0.87,0.134,1.744,0.134,2.62c0,0.197-0.008,0.394-0.018,0.591c-0.039-0.164-0.082-0.329-0.125-0.493
						c-0.148-0.963-0.376-1.92-0.615-2.863c-0.531-2.094-1.039-4.167-1.44-6.292c-0.016-0.086-0.148-0.058-0.133,0.028
						c0.356,2.042,0.794,4.041,1.294,6.052c-0.037-0.122-0.073-0.244-0.111-0.366c-0.685-2.192-1.409-4.378-1.901-6.623
						c-0.022-0.101-0.178-0.069-0.157,0.033c0.455,2.25,1.142,4.446,1.787,6.647c0.294,1.004,0.583,2.007,0.86,3.016
						c0.068,0.248,0.142,0.495,0.213,0.742c0.046,0.484,0.055,0.968,0.054,1.453c-0.01,0.023-0.02,0.047-0.03,0.07
						c-0.106-0.279-0.212-0.558-0.318-0.837c-0.306-1.555-0.882-3.085-1.318-4.594c-0.577-1.997-1.081-4.012-1.543-6.038
						c-0.021-0.092-0.163-0.062-0.143,0.03c0.432,2.031,0.9,4.056,1.459,6.056c0.256,0.915,0.523,1.826,0.783,2.74
						c-0.308-0.695-0.615-1.39-0.906-2.094c-0.836-2.02-1.386-4.154-1.897-6.277c-0.02-0.085-0.152-0.058-0.133,0.028
						c0.464,2.07,0.956,4.164,1.732,6.143c0.383,0.975,0.789,1.936,1.213,2.894c0.12,0.27,0.227,0.547,0.331,0.825
						c-0.107-0.183-0.214-0.366-0.322-0.548c-0.541-0.907-1.034-1.837-1.495-2.787c-0.979-2.022-1.53-4.123-2.015-6.305
						c-0.012-0.055-0.096-0.037-0.085,0.018c0.417,2.036,0.868,4.029,1.718,5.936c0.429,0.963,0.897,1.91,1.418,2.827
						c0.18,0.317,0.365,0.632,0.547,0.949c-0.191-0.262-0.382-0.522-0.576-0.777c-0.724-0.953-1.413-1.945-2.002-2.988
						c-1.13-2.001-2.086-4.007-2.698-6.228c-0.035-0.126-0.233-0.086-0.2,0.041c0.6,2.244,1.543,4.275,2.667,6.303
						c0.05,0.091,0.105,0.18,0.157,0.27c-1.337-1.889-2.474-3.89-3.5-5.962c-0.033-0.067-0.135-0.015-0.103,0.052
						c1.656,3.488,3.721,6.791,6.214,9.745c0.186,0.255,0.374,0.508,0.567,0.755c-0.009-0.01-0.018-0.02-0.031-0.028
						c-0.102-0.06-0.202-0.121-0.304-0.182c-0.303-0.387-0.619-0.764-0.91-1.137c-0.765-0.979-1.53-1.962-2.274-2.956
						c-0.791-1.057-1.552-2.16-2.203-3.31c-0.668-1.18-1.042-2.447-1.321-3.768c-0.023-0.11-0.193-0.075-0.171,0.036
						c0.235,1.189,0.536,2.344,1.079,3.433c0.554,1.109,1.264,2.153,1.976,3.165c0.765,1.088,1.587,2.145,2.405,3.194
						c0.241,0.309,0.492,0.618,0.741,0.931c-0.077-0.048-0.154-0.096-0.231-0.144c-0.149-0.113-0.296-0.228-0.442-0.344
						c-1.17-1.254-2.219-2.651-3.124-4.038c-1.347-2.065-2.675-4.361-3.201-6.792c-0.019-0.087-0.154-0.059-0.135,0.028
						c0.551,2.542,1.842,4.912,3.255,7.076c0.319,0.489,0.656,0.963,1.003,1.429c-0.312-0.356-0.621-0.714-0.924-1.076
						c-1.629-1.951-2.891-4.184-4.041-6.44c-0.063-0.124-0.255-0.027-0.193,0.097c1.105,2.208,2.32,4.391,3.867,6.326
						c0.267,0.334,0.54,0.661,0.816,0.986c-0.468-0.474-0.925-0.963-1.37-1.471c-1.525-1.741-3.017-3.59-4.087-5.651
						c-0.051-0.098-0.202-0.021-0.153,0.077c1.057,2.088,2.541,3.968,4.059,5.737c0.684,0.797,1.399,1.588,2.158,2.332
						c-0.735-0.563-1.443-1.165-2.113-1.826c-1.669-1.644-3.161-3.471-4.659-5.269c-0.087-0.104-0.241,0.037-0.156,0.141
						c2.178,2.647,4.372,5.28,7.034,7.379c-0.493-0.324-0.978-0.659-1.446-1.014c-1.815-1.379-3.429-2.946-5.009-4.581
						c-0.048-0.05-0.127,0.021-0.079,0.072c1.589,1.7,3.214,3.342,5.065,4.763c0.919,0.705,1.894,1.355,2.888,1.948
						c0.036,0.021,0.074,0.045,0.111,0.068c-0.802-0.414-1.593-0.85-2.359-1.315c-1.096-0.666-2.065-1.452-3-2.289
						c-1.212-1.297-2.342-2.667-3.438-4.067c-0.079-0.101-0.224,0.032-0.147,0.132c0.608,0.792,1.227,1.574,1.865,2.339
						c-0.08-0.06-0.196,0.047-0.119,0.122c0.441,0.426,0.876,0.848,1.316,1.261c0.687,0.765,1.399,1.507,2.148,2.217
						c0.814,0.772,1.712,1.536,2.693,2.09c-0.925-0.487-1.788-1.062-2.584-1.747c-1.743-1.502-3.435-3.305-4.62-5.285
						c-0.056-0.094-0.208-0.019-0.153,0.077C825.196,531.606,826.878,533.476,828.668,535.026z M834.577,536.875
						c-0.006-0.002-0.011-0.005-0.017-0.007c-0.002-0.011-0.007-0.021-0.013-0.031C834.557,536.849,834.567,536.862,834.577,536.875
						z M831.799,536.414c-1.11-0.573-2.094-1.408-3.002-2.257c-0.045-0.042-0.089-0.086-0.133-0.128
						c0.403,0.307,0.82,0.6,1.259,0.873c0.78,0.487,1.568,0.959,2.401,1.349c0.346,0.161,0.687,0.336,1.027,0.512
						c0.238,0.245,0.477,0.49,0.717,0.734c-0.223-0.122-0.458-0.218-0.704-0.316C832.821,536.966,832.317,536.682,831.799,536.414z"
						/>
				</g>
			</g>
		</g>
		<g>
			<g>
				<path style="fill:#282828;" d="M767.758,495.463c-4.469,5.043-12.986,17.497-16.923,23.002c-0.93,1.3-1.864,2.697-2.261,4
					c-0.397,1.303-0.039,2.42,1.04,2.093c1.014-0.307,2.134-1.637,3.065-2.819c10.89-13.813,25.791-34.992,36.68-48.805
					c1.793-2.274,3.725-4.564,5.4-6.903c-0.807-1.159-3.635,3.064-4.758,4.33c-2.472,2.788-4.943,5.578-7.415,8.367
					C777.645,484.307,772.702,489.885,767.758,495.463z"/>
			</g>
			<g>
				<g>
					<path style="fill:#FFFFFF;" d="M739.495,541.679c-0.287-0.031-0.523-0.146-0.754-0.265c-0.792-0.405-1.553-0.854-2.283-1.345
						c-0.135-0.091-0.272-0.189-0.312-0.381c-0.05-0.244,0.063-0.611,0.006-0.85c-0.058-0.243-0.279-0.314-0.461-0.421
						c-0.605-0.358-0.799-1.344-0.241-2.532c0.251-0.535,0.626-1.061,0.994-1.574c1.549-2.16,3.135-4.34,4.939-6.248
						c1.804-1.908,3.875-3.544,5.673-4.098c0.348-0.107,0.656-0.169,0.936-0.2c0.799-0.087,1.335,0.122,1.661,0.549
						c1.094,1.429-0.135,5.272-1.49,8.414c-0.814,1.887-1.884,3.885-3.361,5.549c-0.716,0.806-1.502,1.504-2.291,2.09
						C741.446,541.157,740.31,541.766,739.495,541.679z"/>
				</g>
				<g>
					<path style="fill:#D6D6D6;" d="M749.603,527.447c0.227-1.21,0.171-2.184,0.05-3.133c-0.327-0.427-0.862-0.635-1.661-0.549
						c-0.591,0.221-1.2,0.495-1.818,0.857c-0.832,0.488-1.701,1.11-2.536,1.713c-0.713,0.515-1.403,1.044-2.08,1.741
						c-0.68,0.7-1.357,1.552-1.936,2.357c-0.038,0.053,0.01,0.069,0.048,0.018c0.634-0.844,1.397-1.776,2.14-2.483
						c0.69-0.656,1.402-1.17,2.114-1.662c0.742-0.513,1.502-1.056,2.24-1.485c0.701-0.408,1.379-0.685,2.044-0.923
						c-1.178,0.565-2.361,1.275-3.586,2.174c-0.693,0.509-1.41,1.017-2.093,1.604c-0.682,0.585-1.315,1.259-1.945,1.955
						c-0.055,0.061-0.013,0.109,0.042,0.05c0.628-0.675,1.26-1.328,1.934-1.891c0.722-0.603,1.488-1.134,2.219-1.656
						c0.713-0.51,1.408-0.95,2.096-1.338c-0.165,0.104-0.33,0.211-0.499,0.328c-0.746,0.515-1.484,1.002-2.229,1.573
						c-1.416,1.084-2.684,2.413-3.857,3.957c-0.038,0.049,0.006,0.08,0.044,0.031c1.282-1.641,2.656-2.987,4.174-4.092
						c0.724-0.527,1.445-1.003,2.169-1.495c0.172-0.117,0.342-0.222,0.51-0.321c-0.037,0.029-0.073,0.058-0.11,0.086
						c-0.626,0.491-1.255,0.953-1.879,1.462c-0.578,0.472-1.184,0.953-1.737,1.513c-0.611,0.619-1.189,1.299-1.761,1.972
						c-0.024,0.028-0.006,0.05,0.019,0.022c0.537-0.615,1.077-1.227,1.643-1.799c0.594-0.601,1.241-1.108,1.864-1.608
						c0.452-0.363,0.907-0.702,1.362-1.048c-0.351,0.305-0.701,0.614-1.046,0.93c-0.563,0.515-1.159,1.033-1.695,1.61
						c-0.558,0.601-1.051,1.25-1.545,1.911c-0.014,0.019,0.003,0.031,0.017,0.012c0.52-0.678,1.039-1.346,1.627-1.95
						c0.541-0.556,1.135-1.061,1.698-1.562c0.688-0.611,1.45-1.32,2.195-1.889c-0.212,0.203-0.419,0.418-0.629,0.637
						c-0.515,0.539-1.049,1.029-1.557,1.583c-1.036,1.127-1.936,2.42-2.806,3.678c-0.048,0.07,0.015,0.093,0.063,0.025
						c0.85-1.211,1.731-2.464,2.734-3.548c0.509-0.55,1.042-1.035,1.56-1.563c0.334-0.34,0.653-0.653,0.989-0.954
						c-0.005,0.007-0.01,0.015-0.015,0.022c-0.144,0.172-0.288,0.343-0.432,0.514c-0.561,0.503-1.107,1.049-1.637,1.655
						c-0.929,1.061-1.563,2.093-2.218,3.281c-0.032,0.059,0.033,0.054,0.065-0.004c0.324-0.581,0.655-1.195,1.042-1.762
						c0.394-0.577,0.843-1.09,1.307-1.603c0.295-0.326,0.594-0.628,0.899-0.922c-0.483,0.579-0.958,1.166-1.405,1.789
						c-0.931,1.298-1.799,2.634-2.717,3.94c-0.063,0.089,0.018,0.119,0.081,0.031c0.891-1.246,1.738-2.516,2.634-3.758
						c0.462-0.641,0.953-1.256,1.454-1.866c0.112-0.137,0.228-0.272,0.344-0.406c-0.081,0.126-0.161,0.255-0.242,0.383
						c-0.503,0.717-0.976,1.454-1.438,2.187c-1.025,1.625-2.047,3.228-3.131,4.833c-0.044,0.065,0.015,0.087,0.059,0.023
						c1.052-1.533,2.054-3.063,3.041-4.62c-0.057,0.097-0.116,0.193-0.173,0.29c-1.032,1.742-2.047,3.491-3.172,5.209
						c-0.051,0.077,0.018,0.104,0.069,0.027c1.139-1.709,2.172-3.454,3.222-5.189c0.479-0.791,0.959-1.581,1.446-2.37
						c0.12-0.194,0.237-0.389,0.355-0.583c0.262-0.352,0.536-0.691,0.813-1.029c0.016-0.013,0.033-0.026,0.05-0.039
						c-0.125,0.228-0.25,0.455-0.376,0.683c-0.79,1.179-1.478,2.425-2.2,3.612c-0.955,1.571-1.944,3.133-2.953,4.689
						c-0.046,0.071,0.017,0.095,0.063,0.024c1.021-1.55,2.028-3.106,2.99-4.675c0.44-0.717,0.875-1.436,1.313-2.153
						c-0.298,0.581-0.596,1.161-0.904,1.742c-0.885,1.67-1.927,3.328-2.975,4.967c-0.042,0.066,0.016,0.088,0.059,0.023
						c1.033-1.587,2.072-3.2,2.952-4.821c0.434-0.799,0.852-1.596,1.263-2.397c0.116-0.226,0.239-0.452,0.365-0.679
						c-0.07,0.161-0.14,0.322-0.209,0.483c-0.344,0.802-0.716,1.604-1.111,2.411c-0.839,1.716-1.863,3.351-2.953,5.023
						c-0.027,0.042,0.01,0.056,0.037,0.015c1.029-1.549,2.023-3.078,2.838-4.673c0.412-0.805,0.802-1.612,1.158-2.414
						c0.123-0.278,0.243-0.555,0.366-0.833c-0.088,0.242-0.175,0.484-0.258,0.722c-0.311,0.892-0.656,1.799-1.062,2.711
						c-0.779,1.749-1.617,3.446-2.689,5.185c-0.061,0.099,0.026,0.133,0.088,0.034c1.089-1.751,1.945-3.462,2.741-5.227
						c0.036-0.079,0.069-0.158,0.104-0.237c-0.648,1.736-1.425,3.487-2.278,5.253c-0.028,0.057,0.035,0.053,0.063-0.004
						c1.459-2.949,2.68-5.899,3.564-8.74c0.086-0.236,0.17-0.471,0.248-0.704c-0.003,0.009-0.005,0.019-0.006,0.029
						c-0.001,0.074-0.004,0.148-0.006,0.222c-0.123,0.365-0.237,0.727-0.356,1.078c-0.313,0.923-0.628,1.847-0.956,2.774
						c-0.349,0.985-0.734,1.992-1.181,2.998c-0.459,1.032-1.062,2.032-1.727,3.038c-0.056,0.084,0.02,0.113,0.076,0.029
						c0.604-0.902,1.167-1.8,1.614-2.729c0.455-0.946,0.823-1.897,1.172-2.826c0.375-0.999,0.714-1.993,1.05-2.981
						c0.099-0.291,0.195-0.585,0.293-0.882c-0.002,0.058-0.005,0.116-0.008,0.173c-0.017,0.126-0.035,0.252-0.054,0.379
						c-0.339,1.242-0.799,2.544-1.3,3.795c-0.746,1.862-1.629,3.878-2.849,5.736c-0.044,0.066,0.016,0.089,0.06,0.023
						c1.275-1.943,2.213-3.999,2.994-5.95c0.176-0.441,0.339-0.877,0.493-1.311c-0.103,0.346-0.208,0.693-0.317,1.04
						c-0.589,1.871-1.459,3.823-2.377,5.755c-0.051,0.107,0.067,0.099,0.118-0.007c0.905-1.885,1.761-3.787,2.368-5.622
						c0.105-0.316,0.203-0.63,0.3-0.943c-0.12,0.477-0.252,0.961-0.398,1.455c-0.503,1.692-1.078,3.449-1.911,5.221
						c-0.039,0.084,0.053,0.079,0.093-0.005c0.852-1.786,1.448-3.562,1.969-5.272c0.235-0.77,0.456-1.546,0.636-2.303
						c-0.084,0.623-0.2,1.266-0.362,1.937c-0.401,1.67-0.964,3.412-1.508,5.135c-0.032,0.1,0.099,0.051,0.131-0.049
						c0.81-2.529,1.607-5.052,1.947-7.352c-0.026,0.38-0.061,0.767-0.113,1.161c-0.203,1.532-0.577,3.131-1.002,4.767
						c-0.013,0.049,0.053,0.025,0.067-0.025c0.459-1.684,0.873-3.339,1.088-4.911c0.107-0.78,0.163-1.539,0.181-2.266
						c0.001-0.026,0.002-0.055,0.003-0.082c0.022,0.541,0.028,1.093,0.01,1.658c-0.027,0.808-0.163,1.661-0.34,2.539
						c-0.35,1.284-0.769,2.594-1.215,3.914c-0.032,0.095,0.09,0.048,0.123-0.046c0.257-0.743,0.504-1.482,0.735-2.215
						c-0.008,0.067,0.09,0.029,0.108-0.047c0.101-0.435,0.202-0.866,0.296-1.292c0.216-0.749,0.41-1.49,0.574-2.22
						c0.179-0.794,0.325-1.608,0.326-2.303c0.02,0.63-0.03,1.302-0.165,2.03c-0.296,1.594-0.781,3.383-1.53,5.134
						c-0.036,0.083,0.056,0.079,0.093-0.005C748.768,530.921,749.295,529.089,749.603,527.447z M748.753,524.299
						c0,0.003,0.001,0.007,0.001,0.01c-0.005,0.008-0.01,0.017-0.014,0.026C748.744,524.323,748.748,524.311,748.753,524.299z
						 M749.386,525.494c0.031,0.748-0.129,1.64-0.321,2.517c-0.01,0.043-0.021,0.088-0.03,0.131
						c0.045-0.341,0.078-0.676,0.093-1.004c0.027-0.585,0.042-1.161-0.004-1.695c-0.019-0.221-0.029-0.451-0.039-0.68
						c0.063-0.246,0.126-0.491,0.188-0.736c0.002,0.155,0.023,0.296,0.047,0.442C749.371,524.788,749.372,525.145,749.386,525.494z"
						/>
				</g>
			</g>
		</g>
		<g>
			<g>
				<path style="fill:#EDDCD1;" d="M775.714,496.917c-2.357,0.198-5.108,0.409-6.405,2.387c-0.712,1.086-0.862,2.578-1.909,3.347
					c-0.692,0.508-1.602,0.561-2.444,0.728c-3.573,0.71-6.451,4.039-6.636,7.677c-0.185,3.638,2.34,7.243,5.822,8.312
					c3.95,1.213,8.136-0.645,11.77-2.611c6.748-3.652,13.202-7.846,19.28-12.528c0.666-0.513,1.352-1.062,1.703-1.827
					c1.726-3.766-1.003-9.372-4.85-9.728C787.451,492.248,780.699,496.498,775.714,496.917z"/>
			</g>
			<g>
				<path style="fill:#EDEDED;" d="M801.177,483.995c14.213-11.744,24.404-27.84,31.094-45.021
					c2.007-5.155,3.728-10.46,4.464-15.943c0.896-6.672,0.317-13.445-0.263-20.152c-0.788-9.107-1.6-18.331-4.667-26.941
					c-2.04-5.727-5.038-11.064-7.328-16.696c-3.473-8.541-5.278-17.65-7.064-26.695c-0.514-2.604-1.028-5.291-0.489-7.89
					c0.539-2.598,2.41-5.11,5.027-5.553c2.858-0.483,5.491,1.527,7.603,3.511c19.119,17.955,29.448,43.624,33.973,69.459
					c3.198,18.256,3.643,37.683-3.777,54.667c-3.065,7.015-7.385,13.411-12.025,19.5c-13.535,17.761-30.773,33.717-52.063,40.451
					c-0.745,0.236-1.589,0.451-2.275,0.079c-0.585-0.317-0.885-0.975-1.146-1.587c-1.406-3.304-4.915-8.264-3.286-11.92
					C790.496,489.808,798.258,486.406,801.177,483.995z"/>
			</g>
		</g>
		<g>
			<g>
				<path style="fill:#282828;" d="M847.86,587.328c0.27-4.649-0.502-30.208-0.458-35.496c0.009-1.097,0.228-2.361-0.325-3.196
					c-0.554-0.835-1.603-1.215-2.27-0.533c-0.626,0.641-0.649,1.839-0.617,2.872c0.373,12.082,1.262,45.701,1.635,57.783
					c0.061,1.989,0.018,4.053,0.221,6.018c1.447,0.183,0.92-3.268,0.988-4.436c0.15-2.571,0.298-5.142,0.448-7.714
					C847.78,597.484,847.562,592.471,847.86,587.328z"/>
			</g>
			<g>
				<g>
					<path style="fill:#F2F2F2;" d="M841.567,534.757c0.257-0.123,0.529-0.18,0.799-0.233c0.925-0.181,1.855-0.327,2.787-0.437
						c0.172-0.02,0.352-0.038,0.514,0.038c0.207,0.096,0.361,0.332,0.57,0.423c0.212,0.092,0.442,0.02,0.663-0.014
						c0.74-0.115,1.565,0.279,1.909,1.135c0.155,0.386,0.202,0.826,0.246,1.257c0.185,1.815,0.352,3.658,0.158,5.471
						c-0.195,1.813-0.794,3.621-1.899,4.763c-0.214,0.221-0.425,0.4-0.635,0.551c-0.599,0.428-1.18,0.584-1.737,0.53
						c-1.865-0.179-3.451-2.671-4.458-4.878c-0.605-1.326-1.075-2.829-0.983-4.365c0.044-0.744,0.22-1.468,0.473-2.138
						C840.315,535.956,840.838,535.107,841.567,534.757z"/>
				</g>
				<g>
					<path style="fill:#D6D6D6;" d="M842.866,546.669c0.631,0.708,1.335,1.162,2.075,1.572c0.557,0.053,1.139-0.102,1.737-0.53
						c0.337-0.395,0.653-0.823,0.917-1.3c0.355-0.642,0.65-1.37,0.93-2.07c0.239-0.599,0.449-1.193,0.536-1.864
						c0.086-0.674,0.068-1.422,0-2.099c-0.005-0.045-0.055-0.029-0.052,0.014c0.049,0.724,0.051,1.552-0.083,2.26
						c-0.124,0.657-0.363,1.254-0.616,1.841c-0.264,0.612-0.522,1.247-0.839,1.815c-0.301,0.54-0.672,1.004-1.058,1.442
						c0.587-0.848,1.081-1.769,1.481-2.805c0.226-0.586,0.473-1.183,0.638-1.803c0.165-0.618,0.232-1.257,0.28-1.905
						c0.004-0.057-0.063-0.06-0.068-0.005c-0.06,0.636-0.139,1.265-0.313,1.868c-0.187,0.647-0.458,1.278-0.706,1.889
						c-0.242,0.596-0.517,1.149-0.821,1.673c0.065-0.131,0.129-0.264,0.189-0.403c0.265-0.615,0.544-1.211,0.771-1.852
						c0.433-1.219,0.578-2.487,0.5-3.817c-0.003-0.043-0.059-0.036-0.057,0.006c0.054,1.43-0.167,2.758-0.67,4.036
						c-0.24,0.61-0.511,1.193-0.774,1.786c-0.063,0.141-0.131,0.275-0.203,0.405c0.011-0.032,0.021-0.064,0.032-0.096
						c0.184-0.544,0.389-1.077,0.558-1.629c0.157-0.512,0.331-1.042,0.407-1.586c0.084-0.601,0.1-1.216,0.116-1.825
						c0.001-0.026-0.029-0.027-0.03-0.002c-0.027,0.563-0.057,1.126-0.136,1.682c-0.083,0.584-0.273,1.147-0.447,1.694
						c-0.127,0.398-0.272,0.785-0.412,1.175c0.082-0.32,0.161-0.642,0.232-0.964c0.116-0.526,0.255-1.07,0.307-1.614
						c0.054-0.566,0.02-1.125-0.02-1.69c-0.001-0.017-0.023-0.014-0.022,0.002c0.03,0.586,0.054,1.166-0.021,1.749
						c-0.069,0.536-0.217,1.073-0.342,1.592c-0.153,0.634-0.301,1.352-0.529,1.993c0.037-0.202,0.062-0.409,0.087-0.618
						c0.06-0.515,0.167-1.015,0.212-1.534c0.091-1.056-0.042-2.131-0.176-3.172c-0.007-0.058-0.075-0.039-0.068,0.018
						c0.119,1.009,0.241,2.053,0.148,3.073c-0.047,0.517-0.158,1.014-0.227,1.526c-0.045,0.329-0.096,0.637-0.169,0.949
						c-0.001-0.006-0.002-0.012-0.003-0.018c0.002-0.154,0.005-0.308,0.008-0.462c0.121-0.519,0.202-1.052,0.229-1.608
						c0.047-0.972-0.128-1.788-0.392-2.692c-0.013-0.045-0.063-0.011-0.051,0.033c0.126,0.444,0.268,0.907,0.333,1.374
						c0.066,0.475,0.042,0.946,0.008,1.423c-0.022,0.303-0.065,0.597-0.117,0.89c0.006-0.52,0.001-1.039-0.052-1.562
						c-0.111-1.091-0.3-2.17-0.426-3.259c-0.009-0.074-0.095-0.05-0.088,0.024c0.108,1.046,0.269,2.082,0.372,3.128
						c0.053,0.539,0.064,1.081,0.064,1.624c0,0.122-0.004,0.244-0.009,0.366c-0.019-0.102-0.039-0.204-0.06-0.306
						c-0.071-0.597-0.18-1.19-0.294-1.775c-0.254-1.298-0.497-2.583-0.689-3.9c-0.008-0.054-0.071-0.036-0.064,0.017
						c0.17,1.266,0.38,2.505,0.619,3.751c-0.018-0.076-0.035-0.151-0.053-0.227c-0.328-1.359-0.674-2.714-0.909-4.105
						c-0.011-0.063-0.085-0.042-0.075,0.02c0.217,1.395,0.546,2.755,0.855,4.12c0.141,0.622,0.279,1.244,0.411,1.869
						c0.033,0.154,0.068,0.307,0.102,0.46c0.022,0.3,0.026,0.6,0.026,0.901c-0.005,0.014-0.01,0.029-0.014,0.043
						c-0.051-0.173-0.102-0.346-0.152-0.519c-0.146-0.964-0.422-1.912-0.63-2.847c-0.276-1.237-0.517-2.487-0.738-3.742
						c-0.01-0.057-0.078-0.039-0.068,0.018c0.207,1.259,0.43,2.514,0.698,3.753c0.122,0.567,0.25,1.132,0.374,1.698
						c-0.148-0.431-0.294-0.862-0.433-1.298c-0.4-1.252-0.663-2.575-0.908-3.891c-0.01-0.053-0.073-0.036-0.064,0.017
						c0.222,1.283,0.457,2.581,0.828,3.807c0.183,0.605,0.377,1.2,0.58,1.794c0.057,0.168,0.109,0.339,0.158,0.512
						c-0.051-0.113-0.102-0.227-0.154-0.339c-0.259-0.562-0.495-1.139-0.715-1.728c-0.469-1.253-0.732-2.555-0.964-3.908
						c-0.006-0.034-0.046-0.023-0.04,0.011c0.199,1.262,0.415,2.498,0.822,3.679c0.205,0.596,0.429,1.184,0.678,1.752
						c0.086,0.197,0.175,0.392,0.262,0.588c-0.091-0.162-0.183-0.324-0.275-0.482c-0.346-0.591-0.676-1.206-0.958-1.852
						c-0.541-1.24-0.998-2.484-1.291-3.861c-0.017-0.078-0.112-0.053-0.096,0.026c0.287,1.391,0.738,2.65,1.276,3.906
						c0.024,0.056,0.05,0.111,0.075,0.167c-0.639-1.171-1.184-2.411-1.674-3.696c-0.016-0.041-0.064-0.009-0.049,0.032
						c0.792,2.162,1.78,4.209,2.972,6.04c0.089,0.158,0.179,0.315,0.271,0.468c-0.004-0.006-0.008-0.012-0.015-0.017
						c-0.049-0.037-0.097-0.075-0.145-0.113c-0.145-0.24-0.296-0.473-0.435-0.705c-0.366-0.607-0.732-1.216-1.088-1.833
						c-0.378-0.655-0.742-1.339-1.054-2.052c-0.32-0.732-0.499-1.517-0.632-2.335c-0.011-0.068-0.092-0.046-0.082,0.022
						c0.112,0.737,0.256,1.453,0.516,2.128c0.265,0.687,0.604,1.334,0.945,1.962c0.366,0.674,0.759,1.33,1.15,1.98
						c0.115,0.191,0.235,0.383,0.355,0.577c-0.037-0.03-0.074-0.06-0.111-0.09c-0.071-0.07-0.142-0.141-0.211-0.213
						c-0.559-0.778-1.061-1.643-1.494-2.503c-0.644-1.28-1.279-2.703-1.531-4.21c-0.009-0.054-0.074-0.036-0.065,0.017
						c0.263,1.576,0.881,3.045,1.557,4.386c0.153,0.303,0.314,0.597,0.48,0.886c-0.149-0.221-0.297-0.443-0.442-0.667
						c-0.779-1.209-1.383-2.593-1.933-3.992c-0.03-0.077-0.122-0.017-0.092,0.06c0.529,1.369,1.11,2.722,1.849,3.921
						c0.128,0.207,0.258,0.41,0.391,0.611c-0.224-0.294-0.442-0.597-0.655-0.911c-0.73-1.079-1.443-2.225-1.955-3.503
						c-0.024-0.061-0.097-0.013-0.073,0.047c0.505,1.294,1.215,2.459,1.942,3.556c0.327,0.494,0.669,0.984,1.032,1.445
						c-0.352-0.349-0.69-0.722-1.011-1.132c-0.798-1.019-1.512-2.151-2.228-3.266c-0.041-0.065-0.115,0.023-0.075,0.087
						c1.042,1.641,2.091,3.273,3.365,4.574c-0.236-0.201-0.468-0.408-0.692-0.629c-0.868-0.855-1.64-1.826-2.396-2.839
						c-0.023-0.031-0.061,0.013-0.038,0.044c0.76,1.054,1.537,2.071,2.423,2.952c0.439,0.437,0.906,0.84,1.381,1.208
						c0.017,0.013,0.035,0.028,0.053,0.042c-0.384-0.257-0.762-0.527-1.128-0.815c-0.524-0.413-0.988-0.9-1.435-1.419
						c-0.579-0.804-1.12-1.653-1.644-2.521c-0.038-0.062-0.107,0.02-0.07,0.082c0.291,0.491,0.587,0.976,0.892,1.449
						c-0.038-0.037-0.094,0.029-0.057,0.076c0.211,0.264,0.419,0.526,0.629,0.782c0.328,0.474,0.669,0.934,1.027,1.374
						c0.389,0.479,0.819,0.952,1.288,1.296c-0.443-0.302-0.855-0.658-1.236-1.083c-0.834-0.931-1.643-2.049-2.21-3.276
						c-0.027-0.058-0.099-0.012-0.073,0.047C841.205,544.549,842.01,545.708,842.866,546.669z M845.692,547.815
						c0,0-0.005-0.003-0.008-0.005c-0.001-0.007-0.003-0.013-0.006-0.019C845.682,547.799,845.687,547.807,845.692,547.815z
						 M844.363,547.529c-0.531-0.355-1.002-0.873-1.436-1.399c-0.022-0.026-0.042-0.053-0.064-0.08
						c0.193,0.19,0.392,0.372,0.602,0.541c0.373,0.302,0.75,0.594,1.149,0.836c0.165,0.1,0.328,0.208,0.491,0.318
						c0.114,0.152,0.228,0.303,0.343,0.455c-0.107-0.076-0.219-0.135-0.337-0.196C844.852,547.871,844.611,547.695,844.363,547.529z
						"/>
				</g>
			</g>
		</g>
		<g>
			<g>
				<path style="fill:#282828;" d="M856.017,586.487c0.27-4.649-0.502-52.672-0.458-57.959c0.009-1.097,0.228-2.361-0.325-3.196
					s-1.603-1.215-2.27-0.533c-0.626,0.641-0.649,1.839-0.617,2.872c0.373,12.082,1.262,68.164,1.635,80.246
					c0.061,1.989,0.018,4.053,0.221,6.018c1.447,0.183,0.92-3.268,0.988-4.436c0.15-2.571,0.299-5.142,0.448-7.714
					C855.937,596.643,855.719,591.63,856.017,586.487z"/>
			</g>
			<g>
				<g>
					<path style="fill:#F2F2F2;" d="M858.939,514.699l-10.135,0.323c-0.364,1.495,0.577,2.915,0.936,4.328
						c0.596,2.351,1.712,5.087,3.516,5.594c0.539,0.152,1.139,0.104,1.804-0.212c0.234-0.11,0.474-0.249,0.723-0.429
						c1.292-0.926,2.203-2.597,2.719-4.347C859.015,518.206,858.798,516.52,858.939,514.699z"/>
				</g>
				<g>
					<path style="fill:#D6D6D6;" d="M851.494,523.027c0.495,0.809,1.106,1.381,1.762,1.917c0.538,0.152,1.138,0.103,1.804-0.212
						c0.402-0.328,0.79-0.694,1.134-1.116c0.463-0.569,0.884-1.232,1.284-1.871c0.342-0.546,0.655-1.094,0.859-1.739
						c0.205-0.647,0.32-1.387,0.375-2.065c0.004-0.045-0.049-0.038-0.054,0.004c-0.081,0.721-0.227,1.536-0.485,2.209
						c-0.239,0.625-0.581,1.17-0.935,1.702c-0.369,0.555-0.736,1.133-1.149,1.636c-0.393,0.477-0.841,0.868-1.298,1.23
						c0.729-0.73,1.379-1.548,1.957-2.496c0.327-0.536,0.676-1.08,0.95-1.66c0.273-0.579,0.452-1.195,0.615-1.824
						c0.014-0.055-0.051-0.071-0.066-0.017c-0.173,0.616-0.362,1.22-0.641,1.782c-0.299,0.603-0.679,1.176-1.032,1.733
						c-0.345,0.543-0.713,1.038-1.106,1.5c0.087-0.117,0.174-0.237,0.258-0.363c0.371-0.557,0.751-1.095,1.089-1.685
						c0.643-1.123,1.013-2.344,1.173-3.666c0.005-0.043-0.052-0.047-0.058-0.005c-0.202,1.416-0.656,2.684-1.379,3.852
						c-0.344,0.557-0.716,1.083-1.081,1.619c-0.087,0.127-0.178,0.247-0.272,0.362c0.016-0.029,0.032-0.059,0.048-0.089
						c0.278-0.503,0.574-0.99,0.84-1.504c0.246-0.476,0.511-0.967,0.683-1.488c0.19-0.576,0.316-1.178,0.44-1.775
						c0.005-0.025-0.024-0.032-0.029-0.007c-0.127,0.549-0.257,1.098-0.434,1.631c-0.186,0.56-0.473,1.08-0.742,1.587
						c-0.196,0.369-0.408,0.724-0.615,1.082c0.138-0.3,0.273-0.602,0.401-0.907c0.208-0.497,0.442-1.007,0.59-1.533
						c0.154-0.548,0.221-1.103,0.282-1.667c0.002-0.017-0.02-0.018-0.023-0.002c-0.075,0.582-0.154,1.157-0.333,1.717
						c-0.164,0.515-0.405,1.017-0.62,1.505c-0.263,0.597-0.537,1.277-0.876,1.866c0.073-0.192,0.134-0.391,0.196-0.593
						c0.151-0.496,0.346-0.969,0.482-1.471c0.278-1.023,0.339-2.104,0.393-3.153c0.003-0.058-0.067-0.052-0.071,0.006
						c-0.063,1.014-0.129,2.063-0.402,3.05c-0.139,0.501-0.336,0.97-0.496,1.46c-0.103,0.316-0.208,0.61-0.336,0.903
						c0-0.006,0-0.012,0-0.018c0.029-0.152,0.06-0.303,0.09-0.454c0.212-0.489,0.386-1,0.512-1.542
						c0.22-0.949,0.193-1.783,0.094-2.719c-0.005-0.046-0.061-0.022-0.056,0.024c0.045,0.459,0.102,0.94,0.083,1.411
						c-0.02,0.479-0.127,0.938-0.246,1.402c-0.076,0.295-0.17,0.576-0.273,0.855c0.099-0.51,0.186-1.022,0.227-1.547
						c0.086-1.093,0.092-2.188,0.162-3.283c0.005-0.075-0.085-0.066-0.091,0.008c-0.08,1.048-0.106,2.097-0.192,3.144
						c-0.044,0.54-0.13,1.075-0.226,1.609c-0.022,0.12-0.047,0.24-0.074,0.359c0-0.103-0.002-0.208-0.004-0.312
						c0.037-0.6,0.035-1.203,0.027-1.799c-0.019-1.322-0.028-2.63,0.018-3.96c0.002-0.054-0.063-0.048-0.066,0.005
						c-0.058,1.276-0.073,2.532-0.06,3.801c-0.004-0.078-0.007-0.155-0.012-0.233c-0.08-1.395-0.179-2.79-0.162-4.202
						c0.001-0.064-0.076-0.057-0.078,0.007c-0.035,1.411,0.046,2.809,0.106,4.206c0.027,0.637,0.053,1.274,0.071,1.913
						c0.005,0.157,0.012,0.314,0.018,0.471c-0.032,0.299-0.081,0.595-0.135,0.891c-0.007,0.013-0.015,0.027-0.022,0.04
						c-0.019-0.179-0.038-0.358-0.057-0.538c0.028-0.974-0.074-1.957-0.112-2.914c-0.051-1.267-0.065-2.539-0.059-3.814
						c0-0.058-0.07-0.052-0.071,0.006c-0.021,1.276-0.025,2.55,0.017,3.818c0.019,0.58,0.044,1.158,0.065,1.737
						c-0.068-0.45-0.136-0.9-0.195-1.354c-0.17-1.303-0.193-2.652-0.199-3.99c0-0.054-0.065-0.048-0.066,0.006
						c-0.01,1.302-0.01,2.621,0.136,3.894c0.072,0.628,0.157,1.248,0.251,1.869c0.026,0.175,0.046,0.353,0.064,0.532
						c-0.03-0.121-0.06-0.241-0.091-0.362c-0.155-0.599-0.284-1.208-0.396-1.827c-0.237-1.317-0.264-2.645-0.252-4.017
						c0-0.034-0.041-0.031-0.042,0.003c-0.029,1.277-0.037,2.531,0.153,3.767c0.096,0.624,0.211,1.242,0.355,1.845
						c0.05,0.209,0.102,0.417,0.153,0.625c-0.061-0.176-0.122-0.351-0.185-0.523c-0.236-0.643-0.45-1.307-0.612-1.993
						c-0.311-1.317-0.539-2.622-0.581-4.029c-0.002-0.08-0.1-0.072-0.099,0.008c0.034,1.42,0.254,2.739,0.559,4.071
						c0.014,0.06,0.03,0.119,0.044,0.178c-0.42-1.266-0.735-2.584-0.988-3.935c-0.008-0.044-0.062-0.021-0.054,0.023
						c0.394,2.268,1.001,4.459,1.848,6.473c0.059,0.171,0.12,0.342,0.183,0.509c-0.003-0.007-0.006-0.013-0.012-0.019
						c-0.041-0.045-0.082-0.091-0.123-0.137c-0.1-0.262-0.207-0.519-0.303-0.771c-0.252-0.662-0.503-1.327-0.744-1.997
						c-0.255-0.712-0.492-1.45-0.671-2.207c-0.184-0.777-0.22-1.582-0.205-2.41c0.001-0.069-0.083-0.062-0.085,0.007
						c-0.021,0.745-0.007,1.475,0.129,2.186c0.138,0.723,0.357,1.421,0.58,2.099c0.24,0.729,0.51,1.444,0.779,2.153
						c0.079,0.209,0.163,0.419,0.246,0.631c-0.031-0.036-0.062-0.072-0.093-0.108c-0.057-0.082-0.114-0.165-0.17-0.247
						c-0.412-0.865-0.751-1.806-1.024-2.729c-0.406-1.374-0.777-2.888-0.756-4.415c0.001-0.055-0.066-0.049-0.067,0.006
						c-0.022,1.597,0.324,3.153,0.75,4.593c0.096,0.325,0.202,0.643,0.314,0.957c-0.107-0.244-0.214-0.489-0.316-0.735
						c-0.551-1.329-0.898-2.798-1.19-4.272c-0.016-0.081-0.117-0.038-0.102,0.043c0.276,1.441,0.606,2.876,1.121,4.188
						c0.089,0.226,0.181,0.449,0.275,0.671c-0.168-0.329-0.329-0.666-0.482-1.014c-0.525-1.192-1.023-2.447-1.299-3.795
						c-0.013-0.064-0.093-0.03-0.08,0.034c0.266,1.364,0.758,2.636,1.276,3.845c0.234,0.544,0.483,1.088,0.758,1.606
						c-0.284-0.406-0.55-0.834-0.793-1.294c-0.604-1.145-1.104-2.387-1.61-3.611c-0.029-0.071-0.118,0.002-0.089,0.072
						c0.732,1.8,1.474,3.593,2.495,5.1c-0.196-0.239-0.387-0.485-0.568-0.742c-0.702-0.996-1.288-2.089-1.851-3.221
						c-0.017-0.034-0.062,0.002-0.045,0.037c0.56,1.172,1.143,2.313,1.858,3.337c0.354,0.508,0.741,0.988,1.144,1.435
						c0.015,0.016,0.03,0.034,0.045,0.051c-0.332-0.321-0.656-0.654-0.965-1.003c-0.442-0.5-0.812-1.062-1.159-1.652
						c-0.427-0.894-0.807-1.826-1.169-2.774c-0.026-0.068-0.109,0.001-0.084,0.068c0.199,0.535,0.404,1.065,0.619,1.585
						c-0.031-0.043-0.098,0.012-0.069,0.064c0.16,0.297,0.319,0.592,0.48,0.881c0.239,0.525,0.492,1.039,0.766,1.536
						c0.298,0.54,0.636,1.083,1.036,1.505c-0.382-0.376-0.724-0.8-1.023-1.286c-0.654-1.065-1.251-2.309-1.59-3.617
						c-0.016-0.062-0.096-0.029-0.08,0.034C850.238,520.645,850.823,521.929,851.494,523.027z M854.071,524.659
						c-0.002-0.002-0.005-0.004-0.007-0.006c0-0.007-0.001-0.013-0.003-0.02C854.064,524.641,854.067,524.65,854.071,524.659z
						 M852.814,524.141c-0.459-0.444-0.83-1.037-1.163-1.633c-0.016-0.03-0.032-0.06-0.049-0.09c0.156,0.221,0.32,0.436,0.496,0.64
						c0.313,0.364,0.632,0.719,0.981,1.027c0.145,0.128,0.286,0.264,0.427,0.4c0.085,0.17,0.171,0.339,0.256,0.509
						c-0.091-0.094-0.192-0.172-0.297-0.253C853.234,524.565,853.029,524.348,852.814,524.141z"/>
				</g>
			</g>
		</g>
		<g>
			<path style="fill:#AB866F;" d="M848.276,554.649c4.26-0.923,8.454-2.161,12.757-2.852c0.875-0.141,1.896-0.214,2.521,0.415
				c0.402,0.404,0.527,1,0.633,1.56c3.329,17.574,5.653,35.338,6.958,53.177c0.202,2.764,0.347,5.696-0.953,8.144
				c-1.293,2.434-3.8,3.964-6.308,5.107c-9.154,4.172-19.517,4.67-29.577,4.606c-2.643-0.017-5.428-0.107-7.686-1.481
				c-4.113-2.502-4.854-8.063-5.112-12.871c-0.766-14.347-1.107-28.716-1.002-43.084c0.048-6.614-1.16-10.752,6.36-10.758
				C834.104,556.606,841.178,556.186,848.276,554.649z"/>
		</g>
		<g>
			<g>
				<path style="fill:#333333;" d="M704.953,397.77c-19.284,4.875-38.568,9.753-57.852,14.63c-0.984,0.247-2.015,0.521-2.748,1.222
					c-0.915,0.874-1.171,2.213-1.372,3.462c-2.252,14.008-3.384,28.198-3.381,42.387l-1.289,11.869
					c22.269-3.045,44.446-6.761,66.491-11.14c0.821-0.164,1.733-0.39,2.174-1.099c0.323-0.519,0.309-1.169,0.286-1.777
					C706.493,437.472,705.723,417.621,704.953,397.77z"/>
			</g>
			<g>
				<path style="fill:#333333;" d="M589.316,421.802c-0.946,0.716-1.961,1.519-2.234,2.674c-0.497,2.108,1.657,3.806,3.509,4.928
					c18.211,11.033,34.456,25.301,47.747,41.936c2.973-17.271,5.945-34.541,8.918-51.812c0.389-2.258,0.772-4.613,0.109-6.806
					c-0.673-2.226-2.334-3.989-3.847-5.755c-3.089-3.606-5.749-7.572-7.931-11.788c-1.782-3.443-2.963-10.521-6.115-12.267
					C615.614,395.557,604.54,410.274,589.316,421.802z"/>
			</g>
			<g>
				<path style="fill:#EDEDED;" d="M601.364,420.545c0.324-0.315,0.657-0.636,1.068-0.823c0.516-0.234,1.107-0.235,1.672-0.187
					c3.017,0.254,5.812,1.748,8.185,3.629c2.373,1.88,4.4,4.153,6.561,6.275c5.188,5.093,11.196,9.356,15.923,14.879
					c0.323,0.377,0.647,0.774,0.79,1.25c0.246,0.819-0.091,1.688-0.421,2.477c-0.752,1.794-1.504,3.587-2.256,5.381
					c-4.946-5.28-11.045-9.313-17.051-13.346c-4.188-2.813-8.37-5.657-12.258-8.881c-1.813-1.503-4.359-3.256-5.657-5.247
					C596.569,423.879,599.881,421.987,601.364,420.545z"/>
			</g>
			<g>
				<path style="fill:#5B687E;" d="M636.877,431.646c-0.975,0.274-1.655,0.894-2.094,1.646c-1.929,2.015-1.008,5.02,1.324,6.216
					c2.765,1.417,6.344-0.371,6.417-3.625C642.59,432.928,639.638,430.863,636.877,431.646z"/>
			</g>
			<g>
				<path style="fill:#D2D2D2;" d="M644.898,422.129c-1.297-0.823-2.833-0.492-3.895,0.397c-1.703,0.856-2.346,3.06-1.368,4.733
					c1.207,2.063,3.987,2.655,5.858,1.137C647.698,426.611,647.164,423.564,644.898,422.129z"/>
			</g>
			<g>
				<path style="fill:#ECEBE9;" d="M649.971,415.786c-0.878-1.293-2.633-1.971-4.069-1.066c-0.031,0.018-0.06,0.038-0.091,0.059
					c-0.763,0.479-1.516,1.456-1.392,2.425c0.009,0.075,0.036,0.121,0.048,0.19c-0.086,0.525-0.011,1.092,0.335,1.666
					C646.884,422.518,652.228,419.111,649.971,415.786z"/>
			</g>
			<g>
				<path style="fill:#58647A;" d="M629.097,426.348c-0.07-0.055-0.145-0.104-0.223-0.152c-0.095-0.053-0.197-0.088-0.298-0.13
					c-0.135-0.06-0.243-0.139-0.404-0.177c-1.448-0.348-2.891-0.466-3.914,0.858c-1.176,1.522-0.726,3.36,0.481,4.687
					c1.472,1.617,3.797,0.905,4.912-0.633c0.476-0.655,0.604-1.331,0.635-2.127C630.326,427.619,629.821,426.836,629.097,426.348z"
					/>
			</g>
			<g>
				<path style="fill:#B8CCFA;" d="M637.902,420.077c-0.62-2.701-3.422-3.391-5.77-2.63c-3.53,1.141-2.829,5.914-0.152,6.789
					c0.375,0.28,0.786,0.516,1.251,0.638C636.006,425.612,638.506,422.717,637.902,420.077z"/>
			</g>
			<g>
				<path style="fill:#84A5C0;" d="M639.854,410.971c-3.35,0-3.358,5.209,0,5.209C643.206,416.179,643.211,410.971,639.854,410.971z
					"/>
			</g>
			<g>
				<path style="fill:#7F9EBF;" d="M620.534,419.985c-0.031-0.051-0.064-0.101-0.095-0.15c-0.669-1.037-1.747-1.414-2.926-1.19
					c-0.06,0.013-0.122,0.024-0.183,0.037c-2.687,0.508-2.599,4.378-0.34,5.329C619.338,425,622.021,422.293,620.534,419.985z"/>
			</g>
			<g>
				<path style="fill:#B9D9D6;" d="M625.574,412.902c-2.975,0-2.979,4.623,0,4.623C628.55,417.525,628.554,412.902,625.574,412.902z
					"/>
			</g>
			<g>
				<path style="fill:#3678C3;" d="M634.119,402.046c-3.841,0-3.848,5.969,0,5.969C637.959,408.016,637.966,402.046,634.119,402.046
					z"/>
			</g>
			<g>
				<path style="fill:#FFE5DA;" d="M631.484,409.34c-0.29-0.552-0.816-0.974-1.632-0.974c-2.541,0-2.546,3.949,0,3.949
					c0.814,0,1.34-0.422,1.632-0.974C632.002,410.812,632.002,409.87,631.484,409.34z"/>
			</g>
			<g>
				<path style="fill:#434341;" d="M610.84,413.717c-2.107,0-2.613,2.473-1.527,3.676c0.265,0.618,0.816,1.104,1.694,1.104
					c1.359,0,1.959-1.135,1.849-2.182C613.074,415.109,612.425,413.717,610.84,413.717z"/>
			</g>
			<g>
				<path style="fill:#464C53;" d="M616.679,408.103c-2.976,0-2.979,4.623,0,4.623C619.654,412.727,619.658,408.103,616.679,408.103
					z"/>
			</g>
			<g>
				<path style="fill:#A5CECA;" d="M622.882,401.578c-4.896,0-4.903,7.608,0,7.608C627.778,409.186,627.785,401.578,622.882,401.578
					z"/>
			</g>
			<g>
				<path style="fill:#CDF1ED;" d="M629.32,394.789c-4.142,0-4.15,6.438,0,6.438C633.462,401.227,633.469,394.789,629.32,394.789z"
					/>
			</g>
			<g>
				<path style="fill:#EDEDED;" d="M651.363,451.703c-0.863-0.009-1.033-0.059-1.672,0.658c-0.803,0.905,0.717,2.017,1.287,0.995
					c0.218-0.391,0.218-1.083,0.488-1.403C651.547,451.858,651.496,451.704,651.363,451.703z"/>
			</g>
			<g>
				<path style="fill:#FBC30B;" d="M654.422,452.072c-0.362-2.209-2.378-4.104-4.993-3.402c-0.148,0.04-0.263,0.135-0.402,0.192
					c-2.103,0.093-4.091,1.417-4.674,3.543c-0.026,0.093-0.026,0.183-0.046,0.278c-0.229,0.437-0.426,0.898-0.551,1.397
					c-1.315,5.225,6.295,7.708,9.589,4.431C655.284,456.58,655.445,454.073,654.422,452.072z"/>
			</g>
			<g>
				<path style="fill:#FAC97C;" d="M658.44,439.131c-1.871-3.199-6.591-2.957-8.352,0.174c-0.563,1.004-0.607,2.098-0.283,3.085
					c-0.167,2.548,2.495,4.718,5.144,4.045C658.003,445.662,660.139,442.035,658.44,439.131z"/>
			</g>
			<g>
				<path style="fill:#FBC038;" d="M657.156,425.642c-1.426-0.121-3.222,1.192-3.466,2.637c-0.007,0.048-0.016,0.093-0.024,0.141
					c-0.192,1.134,0.07,2.032,0.529,2.743c0.143,0.872,0.618,1.697,1.613,2.235c2.165,1.169,4.75-0.313,5.37-2.57
					C661.957,427.99,659.839,425.87,657.156,425.642z"/>
			</g>
			<g>
				<path style="fill:#FDDF60;" d="M660.415,412.952c-1.794,0.177-3.338,1.242-3.564,3.146c-0.11,0.929,0.172,1.9,0.721,2.67
					c0.106,1.116,0.803,2.132,2.378,2.566c2.405,0.66,4.539-1.209,4.938-3.488C665.355,415.183,663.14,412.681,660.415,412.952z"/>
			</g>
			<g>
				<path style="fill:#FFCFCF;" d="M677.065,411.472c-2.045-2.043-5.569-1.924-7.361,0.375c-1.244,1.593-1.405,3.021-0.627,4.856
					l0.124,0.296c0.66,1.556,2.884,2.204,4.398,1.803c0.558,0.084,1.13,0.08,1.679-0.068
					C678.429,417.884,679.302,413.709,677.065,411.472z"/>
			</g>
			<g>
				<path style="fill:#F0D0F7;" d="M667.233,429.475c0.874,1.67,2.794,2.246,4.517,1.885c2.312,0.241,4.7-1.646,4.77-4.332
					C676.716,419.594,663.431,422.215,667.233,429.475z"/>
			</g>
			<g>
				<path style="fill:#FD8A83;" d="M671.403,436.937c-3.043-2.674-7.668-1.271-8.992,2.392c-0.622,1.717,0.033,3.204,1.198,4.166
					c1.169,2.606,4.841,3.319,7.213,1.955C674.148,443.537,674.106,439.309,671.403,436.937z"/>
			</g>
			<g>
				<path style="fill:#F55135;" d="M669.914,450.556c-1.474-2.491-5.786-3.797-8.243-1.917c-1.66,1.271-2.798,3.135-2.16,5.309
					c0.02,0.071,0.042,0.143,0.062,0.214c0.044,0.148,0.126,0.254,0.181,0.393c0.435,2.771,3.511,4.629,6.326,4.135
					C669.779,458.043,671.891,453.897,669.914,450.556z"/>
			</g>
			<g>
				<path style="fill:#CDFEFF;" d="M687.594,450.816c-0.055-0.236-0.119-0.463-0.21-0.677c-0.046-0.102-0.102-0.19-0.156-0.289
					c-0.17-0.32-0.366-0.615-0.611-0.874c-0.037-0.04-0.057-0.099-0.095-0.137c-0.055-0.053-0.122-0.075-0.179-0.124
					c-0.267-0.24-0.556-0.443-0.874-0.616c-0.095-0.049-0.185-0.106-0.282-0.146c-1.701-0.788-3.886-0.708-5.448,0.487
					c-2.489,1.904-3.241,5.942,0,7.694c2.893,1.564,5.633,0.761,7.482-1.867C687.91,453.286,687.937,451.992,687.594,450.816z"/>
			</g>
			<g>
				<path style="fill:#CFF2EE;" d="M688.568,437.8c-0.627-2.452-3.222-3.991-5.68-3.888c-2.531,0.106-4.122,1.924-4.36,4.36
					c-0.005,0.051-0.011,0.104-0.016,0.157c-0.066,0.686,0.128,1.373,0.464,2.008c0.02,2.588,2.934,4.1,5.384,3.553
					C687.144,443.372,689.324,440.755,688.568,437.8z"/>
			</g>
			<g>
				<path style="fill:#A5CECA;" d="M686.5,421.962c-1.604-1.194-4.148-0.421-5.245,1.048c-1.214,1.624-0.999,3.495,0.139,5.053
					c0.057,0.384,0.157,0.77,0.329,1.143c1.165,2.533,4.658,2.012,6.3,0.397C690.668,427.002,688.995,423.817,686.5,421.962z"/>
			</g>
			<g>
				<path style="fill:#ADE1EC;" d="M684.28,407.277c-2.986,0.638-3.687,4.06-2.56,6.377c0.146,2.008,2.547,3.118,4.303,2.751
					c2.292-0.477,4.181-2.443,4.162-4.85C690.161,408.323,687.2,406.651,684.28,407.277z"/>
			</g>
			<g>
				<path style="fill:#9FDAFC;" d="M697.762,405.278c-1.249-0.296-2.471-0.26-3.53,0.527c-1.816,1.348-2.575,3.636-1.066,5.589
					c0.236,0.305,0.547,0.56,0.883,0.781c0.346,0.355,0.753,0.646,1.227,0.766c2.515,0.642,5.384-1.397,5.157-4.155
					C700.304,407.224,699.399,405.665,697.762,405.278z"/>
			</g>
			<g>
				<path style="fill:#5AD6F5;" d="M695.838,418.257c-3.045,0.115-5.232,3.188-4.117,6.01c0.245,1.84,1.849,3.325,3.678,3.786
					c2.548,0.646,5.245-0.947,5.851-3.504C702.03,421.251,699.108,418.134,695.838,418.257z"/>
			</g>
			<g>
				<path style="fill:#3EC3B2;" d="M693.316,432.619c-2.083,1.467-2.815,3.853-1.622,6.187c0.04,0.077,0.081,0.156,0.121,0.232
					c0.386,0.753,0.945,1.262,1.58,1.596c0.591,0.423,1.282,0.721,2.037,0.834c3.151,0.479,5.724-2.392,5.377-5.457
					C700.417,432.555,696.211,430.583,693.316,432.619z"/>
			</g>
			<g>
				<path style="fill:#279DB1;" d="M697.352,444.995c-0.671,0-1.264,0.132-1.783,0.366c-0.666,0.055-1.302,0.349-1.854,0.924
					c-0.305,0.208-0.582,0.45-0.812,0.728c-1.686,2.026-1.635,5.071,0.839,6.522c3.264,1.911,8.124,0.086,8.049-4.1
					C701.749,447.035,699.781,444.995,697.352,444.995z"/>
			</g>
		</g>
		<g>
			<path style="fill:#EDDCD1;" d="M640.467,467.819c-0.217-1.246-0.211-2.595,0.41-3.697c0.599-1.065,1.68-1.753,2.717-2.398
				c2.89-1.796,5.968-3.649,9.37-3.709c3.15-0.055,6.161,1.478,8.508,3.579c2.347,2.101,4.129,4.746,5.885,7.361
				c0.423,0.63,0.852,1.272,1.072,1.998c0.756,2.495-1.157,5.021-3.278,6.536C655.609,484.305,642.537,479.685,640.467,467.819z"/>
		</g>
	</g>
</g>
</svg>
